<svg fill="#fff" xmlns="http://www.w3.org/2000/svg" viewBox="0 0 300 300" style="enable-background:new 0 0 300 300" xml:space="preserve"><path d="M140.6 128.1h18.8c3.9 0 7.1-3.2 7.1-7.1v-1c0-9.1-7.4-16.4-16.5-16.4s-16.4 7.4-16.4 16.5v.9c-.1 3.9 3.1 7.1 7 7.1zm-2.1-7.9c0-6.3 5.1-11.5 11.4-11.5 6.3 0 11.4 5.1 11.5 11.4v.9c0 1.1-.9 2.1-2.1 2.1h-18.8c-1.1 0-2-.9-2-2v-.9zm13.7 18.1c-.7-.1-1.5-.1-2.2-.1-8.4 0-15.6 6.3-16.6 14.6-.7 5.5 1.3 11 5.4 14.6v4.3c0 6.2 5 11.3 11.3 11.3 6.2 0 11.3-5 11.3-11.3v-4.3c3.5-3.2 5.5-7.7 5.5-12.5-.1-8.4-6.4-15.5-14.7-16.6zm5.1 25.9c-.6.5-1 1.2-1 2v5.5c0 3.5-2.8 6.3-6.3 6.3s-6.3-2.8-6.3-6.3v-5.5c0-.8-.3-1.5-.9-2-3.4-2.5-5.1-6.7-4.5-10.9.8-5.9 5.8-10.3 11.7-10.3.5 0 1 0 1.5.1 5.9.8 10.3 5.8 10.3 11.7 0 3.8-1.7 7.2-4.5 9.4z"/><path d="M279.2 119.2c.8-.4 1.2-1.2 1.2-2.1V76.2c0-.9-.5-1.7-1.2-2.1l-35.4-20.5c-.8-.4-1.7-.4-2.4 0l-34.2 19.7-19.1-11V22.9c0-.9-.5-1.7-1.2-2.1L151.5.3c-.8-.4-1.7-.4-2.4 0l-35.4 20.5c-.8.4-1.2 1.2-1.2 2.1v39.5l-19.1 11-34.3-19.7c-.8-.4-1.7-.4-2.4 0L21.2 74.1c-.8.4-1.2 1.2-1.2 2.1v40.9c0 .9.5 1.7 1.2 2.1L55.4 139v22l-34.7 20c-.8.4-1.2 1.2-1.2 2.1V224c0 .9.5 1.7 1.2 2.1l35.4 20.5c.4.2.8.3 1.2.3s.8-.1 1.2-.3l34.7-20 19.1 11v39.5c0 .9.5 1.7 1.2 2.1l35.4 20.5c.4.2.8.3 1.2.3.4 0 .8-.1 1.2-.3l35.4-20.5c.8-.4 1.2-1.2 1.2-2.1v-39.5l19.1-11 34.2 19.7c.4.2.8.3 1.2.3s.8-.1 1.2-.3l35.4-20.5c.8-.4 1.2-1.2 1.2-2.1v-40.9c0-.9-.5-1.7-1.2-2.1L245 161v-22l34.2-19.8zM55 240.3l-30.5-17.6v-35.3L55 205v35.3zm.4-40.6-28.6-16.5 28.6-16.5v33zm220.2-84L245 133.3V98.1l30.5-17.6v35.2zm-66-35.3 22.9 13.2 5.2 3-28.1 16.2V80.4zm-4.9-2.8v38.1l-14.8 8.6c-1.5-.7-3.2-1.2-5-1.2h-5.3c-1.1 0-2.1-.9-2.1-2.1v-1.6c0-14.3-10.9-26-24.8-27.4v-6.5l33-19 19 11.1zm-52 142.4 28.1 16.2-28.1 16.2V220zm-37.6-27c-3.6 0-6.5-2.9-6.5-6.5v-52c0-3.6 2.9-6.5 6.5-6.5h4.8c4.2 0 7.6-3.4 7.6-7.6v-1c0-12.4 10.1-22.5 22.5-22.5s22.5 10.1 22.5 22.5v1.6c0 3.9 3.2 7.1 7.1 7.1h5.3c3.6 0 6.5 2.9 6.5 6.5v52c0 3.6-2.9 6.5-6.5 6.5h-69.8zm32.7-113-28.1-16.2 28.1-16.2V80zm4.9 0V47.6l28.1 16.2L152.7 80zm30.5-20.4-28.1-16.2 28.1-16.2v32.4zm-33-54.3 30.5 17.6-30.5 17.6-7.6-4.4-22.9-13.2 30.5-17.6zm-32.9 21.8 22.9 13.2 5.2 3-28.1 16.2V27.1zM95.7 77.6l19.1-11 33 19V92c-14.1 1.1-25.3 13-25.3 27.4v1c0 1.4-1.2 2.6-2.6 2.6h-4.8c-1.7 0-3.3.4-4.8 1l-14.6-8.4v-38zM62.8 96.7l5.2-3 22.9-13.2v32.4L62.8 96.7zm25.6 20.4-28.1 16.2v-32.4l28.1 16.2zm-33 16.2-30.5-17.6V80.4l22.9 13.2 7.6 4.4v35.3zm2.5-39.4-7.6-4.4-23-13.3 30.5-17.6 30.5 17.6-2 1.2-28.4 16.5zm2.4 73.3 27.6 15.9L60.3 199v-31.8zm-.5 73.1v-33l28.6 16.5-28.6 16.5zm30.6-21-27.6-15.9 27.6-15.9v31.8zm2.4-39-32.5-18.8V139l33-19 12.9 7.4c-1.6 2-2.5 4.5-2.5 7.2v39.5l-10.9 6.2zm55 113-30.5-17.6v-35.3l30.5 17.6v35.3zm0-40.9-28.1-16.2 28.1-16.2v32.4zm-33-19-19.6-11.3v-37.5l8.4-4.8v6.8c0 6.3 5.1 11.5 11.5 11.5h32.7v16.3l-33 19zm68.4 42.3-30.5 17.6V258l30.5-17.6v35.3zm21.5-53.3-19.1 11-33-19V198h32.2c6.3 0 11.5-5.1 11.5-11.5v-7.1l8.4 4.8v38.2zm35.5 17.6-28.1-16.2 28.1-16.2V240zm-30.6-20.4v-32.4l13.6 7.8 14.5 8.4-28.1 16.2zm30.6-20.5-28.1-16.2 28.1-16.2v32.4zm0-38.1-33 19-10.8-6.3v-39.2c0-2.6-.9-5.1-2.4-7l13.2-7.6 33 19V161zm0-27.7-28.1-16.2 28.1-16.2v32.4zm35.4 89.1L245 240v-35.3l30.5-17.6v35.3zm-2.5-39.5L245 199.1v-32.4l28.1 16.2zm-30.5-89-28.5-16.5-2-1.2 30.5-17.6 30.5 17.6-30.5 17.7z"/></svg>