<svg fill="#ffffff" style="enable-background:new 0 0 128 128" viewBox="0 0 128 128" xml:space="preserve" xmlns="http://www.w3.org/2000/svg"><path d="M94 81c9.4 0 17-7.6 17-17s-7.6-17-17-17c-4.8 0-9.1 2-12.2 5.2L50.3 33.9c.5-1.5.7-3.2.7-4.9 0-9.4-7.6-17-17-17s-17 7.6-17 17 7.6 17 17 17c4.8 0 9.1-2 12.2-5.2l31.5 18.4c-.4 1.5-.7 3.1-.7 4.8s.3 3.3.7 4.9L46.2 87.2C43.1 84 38.8 82 34 82c-9.4 0-17 7.6-17 17s7.6 17 17 17 17-7.6 17-17c0-1.7-.3-3.3-.7-4.9l31.5-18.4C84.9 79 89.2 81 94 81zm0-26c5 0 9 4 9 9s-4 9-9 9-9-4-9-9 4-9 9-9zM34 38c-5 0-9-4-9-9s4-9 9-9 9 4 9 9-4 9-9 9zm0 70c-5 0-9-4-9-9s4-9 9-9 9 4 9 9-4 9-9 9z"/></svg>