<svg xmlns="http://www.w3.org/2000/svg" viewBox="0 0 300 300" style="enable-background:new 0 0 300 300" xml:space="preserve"><path d="M281.2 24.4 6.6 131.7c-9.1 3.2-8.6 16.1.5 18.8l52 15.6c11.3 3.2 20.4 11.8 23.6 23.1l20.4 64.9c2.7 8.6 13.4 11.3 19.8 4.8l27.9-28.4c4.8-4.8 11.8-5.4 17.2-1.6l61.7 45.1c8.6 6.4 20.9 1.6 23.1-9.1l46.7-224.2c3.1-11.5-7.6-20.6-18.3-16.3zm-34.3 49.3-110.5 97.6c-5.9 5.4-10.2 12.9-10.7 20.9-1.1 8-12.3 9.1-15 1.6l-4.8-16.1c-3.8-11.8 1.1-24.1 11.3-30.6l126-78.3c3.1-2 6.3 2.3 3.7 4.9z" style="fill:#db463e"/></svg>