<svg viewBox="0 0 512 512"><path class="inner_sphere" style="opacity:.4;fill:#fff" d="m258.5 407.1 33.2-4.4v.1c.9 3 4 4.7 7 3.8l.6-.2c3-.9 4.7-4 3.8-7v-.1l30.5-14c.7 1.3 2.1 2.2 3.7 2.2 2.3 0 4.2-1.9 4.2-4.2 0-1-.4-2-1-2.7l28.1-26.1c.8.7 1.8 1.2 2.9 1.2 2.3 0 4.2-1.9 4.2-4.2 0-1.7-1-3.1-2.4-3.8l30.1-74.9c.4.1.9.2 1.4.2 2.3 0 4.2-1.9 4.2-4.2 0-2.3-1.9-4.2-4.2-4.2-.2 0-.4 0-.7.1l-17.3-78.8c1.9-.4 3.3-2.1 3.3-4.1 0-2.3-1.9-4.2-4.2-4.2-1.2 0-2.2.5-3 1.2L324 123.4c.6-.7 1-1.7 1-2.7 0-2.3-1.9-4.2-4.2-4.2-1.8 0-3.3 1.1-3.9 2.6l-36.4-12.7c.1-.4.2-.9.2-1.3 0-2.3-1.9-4.2-4.2-4.2-2.3 0-4.2 1.8-4.2 4.1l-35.4 1.5c-.2-2.1-2-3.8-4.2-3.8-2.3 0-4.2 1.9-4.2 4.2 0 .6.1 1.1.3 1.6L158 142.2c-1-2.2-3.3-3.7-5.9-3.7-3.6 0-6.5 2.9-6.5 6.5 0 2.4 1.3 4.4 3.1 5.5l-14 24c-.5-.2-1.1-.4-1.7-.4-2.3 0-4.2 1.9-4.2 4.2 0 1.4.7 2.6 1.7 3.4l-21.6 37.1c-.5-.2-1.1-.4-1.8-.4-2.3 0-4.2 1.9-4.2 4.2 0 2.3 1.9 4.2 4.2 4.2l5.3 80.1c-2.1.3-3.7 2-3.7 4.2 0 2.3 1.9 4.2 4.2 4.2.9 0 1.7-.3 2.4-.8l51.2 63.7c-.7.7-1.1 1.7-1.1 2.8 0 2.3 1.9 4.2 4.2 4.2 1.8 0 3.3-1.1 3.9-2.6l76.5 23.6v.6c0 2.3 1.9 4.2 4.2 4.2 2.4.1 4.3-1.7 4.3-3.9zm0-.5c-.2-2.2-2-3.9-4.2-3.9-1 0-2 .4-2.7 1l-17.9-21.3c.4-.4.7-.9.9-1.4l57 19c-.1.4-.1.8-.1 1.2 0 .3 0 .6.1 1l-33.1 4.4zm-88.8-29.7c-.6 0-1.2.1-1.7.4l-9.7-27.2c.9-.4 1.6-1.1 2.1-1.9l66.4 29.7c-.2.4-.3.9-.3 1.4l-52.6 1.4c-.2-2.1-2-3.8-4.2-3.8zm-52.5-65.7c0-1.7-1.1-3.2-2.6-3.9l13.2-38c.6.2 1.2.3 1.9.3.6 0 1.2-.1 1.7-.2l23.7 72.9c-.6.2-1.2.6-1.6 1.1l-37.1-29.7c.5-.7.8-1.6.8-2.5zm199.2-190.5c0 2.3 1.9 4.2 4.2 4.2.6 0 1.3-.2 1.8-.4l16.6 30.1c-1 .6-1.8 1.4-2.4 2.3l-100.2-48.4c.1-.2.2-.5.2-.7l79.8 12.5v.4zm65.2 61.1c0 2 1.4 3.7 3.3 4.1l-2.9 27.4h-.4c-1.2 0-2.4.3-3.3.9l-32.2-48.8c.8-.6 1.4-1.4 1.9-2.3l33.9 17.1c-.2.5-.3 1-.3 1.6zm19 87.1c0 1.4.7 2.6 1.7 3.4l-22.8 34.1c-.8-.5-1.7-.8-2.7-.9l4.8-79.2h.2c.9 0 1.7-.2 2.5-.5l18.6 39.5c-1.4.6-2.3 2-2.3 3.6zm-33.3 82.7c0 .8.2 1.5.6 2.1L302.4 398c-.2-.3-.4-.6-.7-.9l70.3-80.3c.9.7 1.9 1.2 3.1 1.4l-3.3 29.2h-.2c-2.4 0-4.3 1.8-4.3 4.2zM227 377.4l-66.4-29.7c.2-.5.3-1 .3-1.5 0-1.2-.5-2.2-1.2-3l50.3-56.4c1.1.9 2.6 1.5 4.1 1.5.3 0 .6 0 .8-.1l14.9 87.2c-1.2.2-2.2 1-2.8 2zm-91-112.7 71.7 15.9c-.1.4-.1.8-.1 1.2 0 1.8.8 3.5 2 4.6l-50.3 56.4c-.7-.6-1.6-.9-2.6-.9-.4 0-.7.1-1.1.1L132 269.2c1.9-.8 3.5-2.4 4-4.5zm1.2-86.4v-.3l69.7-9.8c.6 3.2 3.3 5.7 6.7 5.8l.2 101.3c-1.3.1-2.5.5-3.5 1.2l-74.4-95c.8-.8 1.3-1.9 1.3-3.2zm161.1 217.2 8.9-86.9h.2c2.1 0 3.8-1.5 4.1-3.5l58.1 6.3v.5c0 1.8.8 3.5 2 4.7l-70.3 80.3c-.8-.8-1.9-1.3-3-1.4zm-84.2-221.6c3.3-.1 6-2.5 6.6-5.6l73.6 13c0 .3-.1.6-.1.9 0 1.9.8 3.5 2 4.7L218 276.7c-1.1-.9-2.4-1.4-3.8-1.4l-.1-101.4zm161.1 45.8c0 1.8.8 3.5 2 4.7L310 301c-.7-.6-1.6-.9-2.6-.9l-6.1-111.4c2.3-.2 4.2-1.6 5.2-3.5l69.3 32.1c-.4.7-.6 1.5-.6 2.4zm-154.7 62c0-1.9-.8-3.5-2-4.7l78.2-89.8c1.1.9 2.5 1.4 4.1 1.4h.1L307 300c-1.7.2-3.1 1.4-3.6 3l-83-20c.1-.4.1-.8.1-1.3zm-.2 1.8 83 20c0 .2-.1.5-.1.8 0 1.1.4 2 1 2.8l-70.6 69.2c-.8-.7-1.7-1.1-2.8-1.1h-.5l-14.9-87.1c2.3-.5 4.2-2.3 4.9-4.6zm149.4 27.4-58.1-6.3v-.2c0-1.2-.5-2.2-1.3-3l67.3-76.6c1 .8 2.1 1.3 3.4 1.4l-4.8 79.2h-.2c-3.2-.1-5.9 2.3-6.3 5.5zm6.2-94.1-69.3-32.1c.3-.8.5-1.6.5-2.5 0-1-.2-1.9-.6-2.8l30.1-16c1.1 1.9 3.2 3.2 5.6 3.2 1.3 0 2.5-.4 3.5-1.1l32.2 48.8c-.8.8-1.5 1.5-2 2.5zm-40.1-56.6c0 1 .2 1.9.6 2.8l-30.1 16a6.47 6.47 0 0 0-5.6-3.2c-1.6 0-3 .6-4.1 1.5l-61-67.4c.3-.3.5-.6.7-.9l100.2 48.3c-.5.9-.7 1.9-.7 2.9zm-100.6-50 61 67.4c-.9.9-1.5 2-1.8 3.3l-73.6-13c0-.3.1-.7.1-1 0-3.1-2-5.7-4.7-6.6l15.4-49.3c.3.1.7.1 1 .1.9 0 1.9-.3 2.6-.9zm-.2 269.2c0-1.1-.4-2-1-2.8l70.6-69.2c.6.5 1.3.9 2.2 1l-8.9 87c-.6 0-1.2.1-1.7.2l-.5.1c-1.9.5-3.2 2-3.8 3.7l-56.9-19c-.1-.2 0-.6 0-1zm-3.9-268.5-15.4 49.3c-.6-.2-1.2-.3-1.9-.3-3.9 0-7 3.2-7 7v.7l-69.7 9.8c-.1-.6-.4-1.1-.7-1.6l92.8-66.3c.5.6 1.1 1.1 1.9 1.4zm-95.7 70.9 74.4 95c-1 .8-1.7 2-2.1 3.3L136 264.2c.1-.4.1-.8.1-1.2 0-3.4-2.6-6.2-6-6.5l2.7-74.1h.1c1 .2 1.8-.1 2.5-.6zm167.4 217.1c-.1-.2-.1-.3-.2-.5l65.6-44.3.1.1-28.1 26.1c-.8-.7-1.8-1.2-2.9-1.2-2.3 0-4.2 1.9-4.2 4.2 0 .5.1 1 .3 1.5l-30.6 14.1zm70.1-51.3c-.2-.1-.4-.1-.6-.2l3.3-29.2h.5c3.6 0 6.5-2.9 6.5-6.5 0-2.1-1.1-4-2.7-5.2l22.8-34.1c.1.1.2.1.3.2l-30.1 75zm30.8-82.8c-.1 0-.3.1-.4.1l-18.6-39.5c2.1-1.1 3.5-3.3 3.5-5.8 0-3.3-2.4-5.9-5.6-6.4l2.8-27.3h.9l17.4 78.9zm-21.6-85.1-33.9-17.1c.3-.7.5-1.5.5-2.4 0-3.6-2.9-6.5-6.5-6.5-1 0-1.9.2-2.7.6l-16.6-30.1c.2-.1.5-.3.7-.5l59 55.4c-.2.2-.4.4-.5.6zm-65.5-60.2c0 .1 0 .2-.1.3l-79.8-12.5v-.3l35.4-1.5c.2 2.1 2 3.8 4.2 3.8 1.7 0 3.2-1 3.8-2.5l36.5 12.7zm-167.5 31.2c.9.4 1.9.7 2.9.7 3.6 0 6.5-2.9 6.5-6.5 0-.8-.2-1.6-.4-2.3l70.7-33.7c0 .1.1.1.1.2l-92.8 66.4c-.3-.3-.6-.6-1-.8l14-24zM130.9 182c.5.3 1 .4 1.5.5l-2.7 74.1c-1.1 0-2.1.3-2.9.7l-17.2-31.2c1.1-.8 1.8-2 1.8-3.5s-.8-2.8-2-3.6l21.5-37zm-23.2 44.8c.5-.1 1-.2 1.4-.4l17.2 31.2c-1.9 1.1-3.1 3.2-3.1 5.6 0 2.8 1.7 5.1 4.2 6.1l-13.2 38c-.4-.1-.8-.2-1.2-.2l-5.3-80.3zm8.4 87.2 37.2 29.7c-.5.7-.8 1.5-.8 2.4 0 2.3 1.9 4.2 4.2 4.2.4 0 .8-.1 1.2-.2l9.7 27.3c-.2.1-.4.3-.6.5l-51.2-63.6.3-.3zm57.7 68.2c.1-.3.1-.7.2-1.1l52.6-1.4c.2 2.2 2 3.9 4.2 3.9 1 0 1.9-.3 2.6-.9l17.9 21.3c-.5.5-.8 1.1-1 1.8l-76.5-23.6z"/><path class="sphere" d="m424.3 253.5-4.8-36.9h.1c3.3-1 5.2-4.4 4.3-7.8l-.2-.6c-1-3.3-4.5-5.2-7.8-4.2h-.1l-15.5-34c1.5-.8 2.5-2.4 2.5-4.2 0-2.6-2.1-4.7-4.7-4.7-1.1 0-2.2.4-3 1.1L366 130.8c.8-.8 1.3-2 1.3-3.3 0-2.6-2.1-4.7-4.7-4.7-1.9 0-3.5 1.1-4.2 2.7L275 91.8c.2-.5.3-1 .3-1.5 0-2.6-2.1-4.7-4.7-4.7s-4.7 2.1-4.7 4.7c0 .2 0 .5.1.7l-87.8 19.2c-.5-2.1-2.3-3.6-4.6-3.6-2.6 0-4.7 2.1-4.7 4.7 0 1.3.5 2.5 1.4 3.3l-61.9 65.6c-.8-.7-1.9-1.1-3-1.1-2.6 0-4.7 2.1-4.7 4.7 0 2 1.2 3.6 2.9 4.3l-14.2 40.5c-.5-.1-.9-.2-1.5-.2-2.6 0-4.7 2.1-4.7 4.7s2.1 4.6 4.6 4.7l1.6 39.5c-2.4.2-4.2 2.2-4.2 4.7 0 2.6 2.1 4.7 4.7 4.7.6 0 1.2-.1 1.8-.3L129 365c-2.5 1.2-4.2 3.7-4.2 6.6 0 4 3.2 7.2 7.2 7.2 2.6 0 4.9-1.4 6.2-3.5l26.7 15.6c-.3.6-.4 1.2-.4 1.9 0 2.6 2.1 4.7 4.7 4.7 1.5 0 2.9-.8 3.8-1.9l41.3 24.1c-.3.6-.4 1.3-.4 2 0 2.6 2.1 4.7 4.7 4.7s4.7-2.1 4.7-4.7l89.3-5.7c.3 2.3 2.3 4.1 4.7 4.1 2.6 0 4.7-2.1 4.7-4.7 0-1-.3-1.9-.8-2.7l71.1-56.9c.8.7 1.9 1.2 3.1 1.2 2.6 0 4.7-2.1 4.7-4.7 0-2-1.2-3.6-2.9-4.3l26.5-85.2c.2 0 .4.1.7.1 2.6 0 4.7-2.1 4.7-4.7-.3-2.5-2.3-4.6-4.8-4.7zm-.5 0c-2.4.2-4.3 2.2-4.3 4.7 0 1.2.4 2.2 1.1 3L396.8 281c-.4-.4-1-.8-1.6-1l21.3-63.4c.4.1.9.2 1.4.2.4 0 .7 0 1.1-.1l4.8 36.8zm-33.3 98.9c0 .7.1 1.3.4 1.9L360.6 365c-.4-1-1.2-1.8-2.2-2.3l33.3-73.9c.5.2 1 .3 1.6.3l1.4 58.6c-2.3.2-4.2 2.2-4.2 4.7zm-73.3 58.3c-1.9 0-3.6 1.2-4.3 2.8l-42.3-14.8c.2-.7.3-1.4.3-2.1 0-.7-.1-1.3-.3-1.9l81.3-26.2c.3.7.7 1.3 1.2 1.8l-33.2 41.3c-.7-.5-1.7-.9-2.7-.9zM105.4 188.4c2.6 0 4.7-2.1 4.7-4.7 0-.7-.2-1.4-.5-2l33.6-18.4c.6 1.1 1.5 2 2.6 2.6L91.6 277.5c-.3-.1-.5-.2-.8-.2l14.1-88.9h.5zm68.2-72.5c2.3 0 4.1-1.6 4.6-3.7l30.5 3.2v.5c0 1.4.4 2.6 1 3.7l-54.5 35.7c-.7-.9-1.5-1.6-2.6-2.1l19.2-37.7c.5.3 1.1.4 1.8.4zm97-21c1.5 0 2.9-.7 3.7-1.9l37.9 25.5c-.6.9-.9 1.9-1 3.1l-88.2-5.5v-.2c0-1-.2-1.9-.6-2.8l44-20.6c.9 1.4 2.4 2.4 4.2 2.4zm92.1 37.3c.9 0 1.7-.2 2.4-.7l49.2 73.1c-.3.2-.7.5-1 .8L324 126.9c.8-1 1.3-2.2 1.5-3.4l32.5 3.8v.3c0 2.5 2.1 4.6 4.7 4.6zm28.5 156.3-33.3 73.9c-.5-.2-1.1-.3-1.7-.3-1.3 0-2.5.5-3.3 1.4l-62.8-56.1c1-1.2 1.7-2.8 1.7-4.6 0-.3 0-.6-.1-.9l97.1-16.4c.4 1.3 1.2 2.4 2.4 3zM265.5 389.7l17.8-79.8c.4.1.9.1 1.3.1 2 0 3.9-.8 5.2-2.2l62.8 56.1c-.6.8-1 1.8-1 2.9 0 .4.1.8.2 1.2l-81.3 26.2c-.9-2.2-2.7-3.9-5-4.5zm-96.3-1.5h-.4L158 310.5c3.6-.6 6.3-3.7 6.5-7.4h112.9c.1 1.5.5 2.8 1.4 3.9l-106 82.7c-.9-.9-2.2-1.5-3.6-1.5zm242.3-179-96.9-10.1v-.2c0-2.3-1.7-4.3-3.9-4.6l7.2-64.7h.5c2.1 0 3.9-.9 5.2-2.3l89.3 78.5c-.8 1-1.3 2.1-1.4 3.4zm-247 93.3c-.1-3.6-2.7-6.6-6.2-7.4l14.6-82c.3 0 .7.1 1 .1 2.1 0 3.9-.9 5.2-2.3l99.9 87.3c-.9 1.2-1.5 2.6-1.6 4.3H164.5zm51.3-179.4c2.1 0 3.9-.9 5.2-2.2l85.2 75.1c-.6.8-1 1.8-1 2.9L181 205.5c-.2-2.5-1.7-4.7-3.9-5.8l35.9-77.1c.9.3 1.8.5 2.8.5zm68.8 172.5c-2.1 0-3.9.9-5.2 2.3l-99.9-87.3c1-1.2 1.6-2.8 1.6-4.5v-.1l124.2-6.6c.2 1.9 1.5 3.4 3.3 4L286 295.8c-.4-.1-.9-.2-1.4-.2zm2 .3 22.5-92.4c.3 0 .6.1.8.1 1.2 0 2.3-.4 3.1-1.2l77 78.8c-.8.8-1.2 1.9-1.2 3.2v.5l-97.1 16.4c-.6-2.6-2.6-4.7-5.1-5.4zm30.8-166.4-7.2 64.7h-.2c-1.3 0-2.5.5-3.3 1.4l-85.2-75.1c.9-1.1 1.4-2.4 1.6-3.8l88.2 5.5v.2c-.1 3.5 2.6 6.5 6.1 7.1zm-104.8-7.2-35.9 77.1c-.9-.4-1.8-.6-2.8-.6-1.1 0-2.2.3-3.1.7L153.1 166c2.2-1.2 3.6-3.6 3.6-6.2 0-1.4-.4-2.8-1.2-3.9l54.5-35.7c.6.8 1.5 1.6 2.6 2.1zm-63.1 44.6c1.1 0 2.2-.3 3.1-.7l17.7 33.6c-2.2 1.2-3.6 3.6-3.6 6.2 0 1.8.6 3.4 1.7 4.6l-75.2 67.8c-.3-.3-.6-.6-1-.8L146.3 166c.9.6 2 .9 3.2.9zm-56 112 75.2-67.8c1 1 2.2 1.7 3.6 2l-14.6 82c-.4-.1-.7-.1-1.1-.1-3.4 0-6.3 2.2-7.4 5.2L94.4 283c.1-.4.1-.7.1-1.1 0-1.2-.3-2.2-1-3zm300 .8c-1.2 0-2.3.4-3.1 1.2l-77-78.8c.6-.7 1-1.5 1.2-2.4l96.9 10.1c0 .6.1 1.3.3 1.9l.2.6c.6 2.1 2.2 3.6 4.1 4.2l-21.3 63.4c-.5-.1-.9-.2-1.3-.2zm-299.3 3.8 54.9 17.2c-.2.7-.3 1.4-.3 2.1 0 4.3 3.5 7.8 7.8 7.8h.8l10.8 77.6c-.7.1-1.3.4-1.8.8L92.8 285.5c.6-.5 1.1-1.2 1.4-2zm78.9 106.7 106-82.7c.9 1.1 2.2 1.9 3.7 2.3L265 389.6c-.4-.1-.9-.1-1.3-.1-3.8 0-6.9 2.9-7.2 6.7L174 393v-.1c-.1-1-.4-2-.9-2.7zm242.2-186.1c-.2.1-.4.2-.5.2l-49.2-73.1.1-.1 29.1 31.4c-.8.8-1.3 2-1.3 3.3 0 2.6 2.1 4.7 4.7 4.7.6 0 1.2-.1 1.7-.3l15.4 33.9zm-57-78.1c-.1.2-.1.5-.2.7l-32.5-3.8v-.6c0-4-3.2-7.2-7.2-7.2-2.4 0-4.5 1.2-5.8 3l-37.9-25.5c.1-.1.1-.2.2-.4l83.4 33.8zm-92.2-34.5c0 .2.1.3.2.5l-44 20.6c-1.2-2.3-3.6-3.9-6.4-3.9-3.6 0-6.6 2.7-7.1 6.2l-30.5-3.2v-.9l87.8-19.3zm-94.8 23.8L152.1 153c-.8-.3-1.7-.5-2.7-.5-4 0-7.2 3.2-7.2 7.2 0 1.1.2 2.1.7 3l-33.6 18.4c-.2-.3-.4-.5-.6-.7l61.9-65.6c.3.2.5.4.7.5zm-67.2 72.9c.1 0 .2.1.3.1l-14.1 88.9h-.4l-1.6-39.5c2.4-.2 4.3-2.2 4.3-4.7 0-1.9-1.1-3.5-2.7-4.3l14.2-40.5zm34.4 186.6c.5-1 .8-2.1.8-3.3 0-4-3.2-7.2-7.2-7.2-.9 0-1.8.2-2.5.5L92.2 286c.1 0 .2-.1.2-.1l73.7 103.6c-.4.3-.7.7-.9 1.1l-26.7-15.8zm34.8 20.4c.3-.5.5-1.1.6-1.7l82.5 3.2c0 1.2.3 2.3.8 3.3l-34.8 19.1c-.8-1.2-2.3-2.1-3.9-2.1-1.7 0-3.2.9-4 2.2l-41.2-24zm49.9 26c-.1-.6-.2-1.1-.5-1.6l34.8-19.1c1.3 2.1 3.6 3.5 6.2 3.5 3.1 0 5.7-1.9 6.8-4.6l42.3 14.8c-.1.4-.2.9-.2 1.3l-89.4 5.7zm97.2-9.2 33.2-41.3c.8.5 1.7.9 2.7.9 2.6 0 4.7-2.1 4.7-4.7 0-.5-.1-.9-.2-1.3l30.4-10.8c.2.3.3.5.5.7l-71 56.9c-.1-.2-.2-.3-.3-.4zm76.1-64.1c-.4-.1-.8-.2-1.2-.2l-1.4-58.6c2.4-.2 4.3-2.2 4.3-4.7 0-1.1-.4-2.1-1-2.9l23.8-19.9c.6.5 1.2.9 2 1.1l-26.5 85.2z"/><g class="orbitals"><path d="M98.2 395.9c-.4 0-.8-.2-1.1-.5-13.9-17.8-24.9-37.5-32.7-58.6-.3-.7.1-1.5.8-1.8.7-.3 1.5.1 1.8.8 7.7 20.8 18.6 40.3 32.3 57.9.5.6.4 1.5-.2 2-.3.1-.6.2-.9.2zM37.6 192.4c-.2-.3-.3-.8-.2-1.2 6.4-21.7 16-42.1 28.5-60.8.4-.6 1.3-.8 1.9-.4.6.4.8 1.3.4 1.9-12.4 18.4-21.8 38.6-28.1 60-.2.7-1 1.2-1.7.9-.3 0-.6-.2-.8-.4zm276.8 281.5c-.6 0-1.2-.4-1.3-1-.2-.7.2-1.5 1-1.7 26.9-7.3 51.9-19.6 74.2-36.5.6-.5 1.5-.3 2 .3s.3 1.5-.3 2c-22.6 17.1-47.9 29.6-75.1 37-.3-.1-.4-.1-.5-.1zm147.3-133.5c-.2 0-.3 0-.5-.1-.7-.3-1.1-1.1-.8-1.8 9-23.6 13.8-48.5 14.3-73.9 0-.8.6-1.4 1.4-1.4.8 0 1.4.6 1.4 1.4-.5 25.8-5.3 51-14.5 74.9-.2.6-.7.9-1.3.9zm14.2-89.4c-.7 0-1.4-.6-1.4-1.3-.3-5.1-.7-10.2-1.3-15.2-.1-.8.5-1.5 1.2-1.5.8-.1 1.5.5 1.5 1.2.6 5.1 1 10.3 1.3 15.4.1.7-.5 1.4-1.3 1.4zm-37.6-112.3c-.4 0-.9-.2-1.2-.6-17.4-25.6-40.5-47.6-66.8-63.7-.7-.4-.9-1.3-.5-1.9.4-.7 1.3-.9 1.9-.5 26.7 16.3 50.1 38.6 67.7 64.5.4.6.3 1.5-.4 1.9-.2.2-.4.3-.7.3zm-108-83.6c-.2 0-.3 0-.5-.1-6.1-2.2-12.3-4.1-18.6-5.7-.7-.2-1.2-1-1-1.7.2-.7.9-1.2 1.7-1 6.3 1.6 12.7 3.6 18.8 5.8.7.3 1.1 1.1.8 1.8-.1.6-.6.9-1.2.9zm-196.9 25c-.4 0-.9-.2-1.2-.6-.4-.6-.3-1.5.4-1.9 27.3-18.5 57.6-30.4 90.2-35.4.8-.1 1.5.4 1.6 1.2.1.8-.4 1.5-1.2 1.6-32.1 4.9-62.1 16.7-89 35-.3.1-.5.1-.8.1zm-52.3 61.8c-.2 0-.5-.1-.7-.2-.7-.4-.9-1.2-.5-1.9 10.2-17.4 22.7-33.2 37.2-47.3.6-.5 1.4-.5 2 0 .5.6.5 1.4 0 2a219.1 219.1 0 0 0-36.8 46.7c-.3.5-.8.7-1.2.7zM149.9 470c-.3 0-.6 0-.8-.2-22.8-14.1-42.9-31.8-59.7-52.6-.5-.6-.4-1.5.2-2 .6-.5 1.5-.4 2 .2 16.6 20.6 36.5 38.1 59 52 .7.4.9 1.3.5 1.9-.3.4-.8.6-1.2.7zM56.5 369.1c-.3-.1-.5-.3-.6-.6-12.9-23.5-21.6-48.8-26-75.2-.1-.8.4-1.5 1.1-1.6.8-.1 1.5.4 1.6 1.1 4.3 26.1 13 51.1 25.7 74.3.4.7.1 1.5-.6 1.9-.4.3-.9.3-1.2.1zM352 475.8c-.5 0-1-.3-1.3-.8-.3-.7 0-1.5.7-1.8 23.3-10.4 44.7-24.6 63.5-42.1.6-.5 1.4-.5 2 .1.5.6.5 1.4-.1 2-19 17.7-40.6 32-64.3 42.6-.1-.1-.3 0-.5 0zm131.3-155.4h-.3c-.7-.2-1.2-1-1-1.7 2.1-8.1 3.7-16.4 4.9-24.7.1-.8.8-1.3 1.6-1.2.8.1 1.3.8 1.2 1.6-1.2 8.4-2.9 16.8-5 25-.3.6-.8 1-1.4 1zM110 409.6c.1-.1.1-.2.2-.3.5-.6 1.4-.6 2 0 6 5.8 12.4 11.4 19 16.6.6.5.7 1.3.2 2-.5.6-1.3.7-2 .2-6.7-5.2-13.2-10.9-19.2-16.8-.5-.5-.5-1.2-.2-1.7zM490.4 272c-.8 0-1.4-.7-1.4-1.5.1-3.3.2-6.6.2-9.9 0-18.1-2.1-36.1-6.2-53.6-.2-.7.3-1.5 1-1.7.7-.2 1.5.3 1.7 1 4.2 17.7 6.3 35.9 6.3 54.2 0 3.3-.1 6.7-.2 10.1 0 .8-.7 1.4-1.4 1.4zM421.6 96c-.4 0-.7-.1-1-.4-26.6-26.4-59.5-46.3-95.1-57.3-.7-.2-1.1-1-.9-1.7.2-.7 1-1.1 1.7-.9 36.1 11.2 69.3 31.2 96.2 58 .5.5.5 1.4 0 2-.2.2-.6.3-.9.3zM77.2 111.6c-.3 0-.6-.1-.9-.3-.6-.5-.7-1.4-.2-2 22.2-26.5 50.5-48.1 81.8-62.6.7-.3 1.5 0 1.8.7.3.7 0 1.5-.7 1.8-30.9 14.3-58.9 35.7-80.9 61.8-.1.4-.5.6-.9.6z"/><g class="grat"><path d="M25 234.3zm15.9-8 7.3-3.7-7.4-3.6-7.2 3.5zm13.2-.9-7.4 3.9 9.9 5v24.6l8-3.9v-24.5zm-27 .2L17 230.5V255l7.9 3.8v-24.5l9.7-5-7.5-3.7z"/><path d="m40.8 232.4-9.5 4.9v24.6l9.5 4.6 9.5-4.6v-24.6z"/></g><g class="grat"><path d="M253 31.3zm15.9-8 7.3-3.7-7.4-3.6-7.2 3.5zm13.2-.9-7.4 3.9 9.9 5v24.6l8-3.9V27.5zm-27 .2L245 27.5V52l7.9 3.8V31.3l9.7-5-7.5-3.7z"/><path d="m268.8 29.4-9.5 4.9v24.6l9.5 4.6 9.5-4.6V34.3z"/></g><g class="grat"><path d="M445 167.3zm15.9-8 7.3-3.7-7.4-3.6-7.2 3.5zm13.2-.9-7.4 3.9 9.9 5v24.6l8-3.9v-24.5zm-27 .2-10.1 4.9V188l7.9 3.8v-24.5l9.7-5-7.5-3.7z"/><path d="m460.8 165.4-9.5 4.9v24.6l9.5 4.6 9.5-4.6v-24.6z"/></g><g class="grat"><path d="M431 379.3zm15.9-8 7.3-3.7-7.4-3.6-7.2 3.5zm13.2-.9-7.4 3.9 9.9 5v24.6l8-3.9v-24.5zm-27 .2-10.1 4.9V400l7.9 3.8v-24.5l9.7-5-7.5-3.7z"/><path d="m446.8 377.4-9.5 4.9v24.6l9.5 4.6 9.5-4.6v-24.6z"/></g><g class="grat"><path d="M218 465.3zm15.9-8 7.3-3.7-7.4-3.6-7.2 3.5zm13.2-.9-7.4 3.9 9.9 5v24.6l8-3.9v-24.5zm-27 .2-10.1 4.9V486l7.9 3.8v-24.5l9.7-5-7.5-3.7z"/><path d="m233.8 463.4-9.5 4.9v24.6l9.5 4.6 9.5-4.6v-24.6z"/></g></g></svg>