<svg fill="#fff" xmlns="http://www.w3.org/2000/svg" viewBox="0 0 300 300"><path d="m261.2 73.4 3.1.3.3 3.1c.2 1.5 1.4 2.6 2.9 2.6s2.7-1.1 2.9-2.6l.3-3.1 3.1-.3c1.5-.2 2.6-1.4 2.6-2.9s-1.1-2.7-2.6-2.9l-3.1-.3-.3-3.1c-.2-1.5-1.4-2.6-2.9-2.6s-2.7 1.1-2.9 2.6l-.3 3.1-3.1.3c-1.5.2-2.6 1.4-2.6 2.9s1.1 2.7 2.6 2.9zm10.8 82c0-4.2-.3-8.3-.7-12.3 0-.2 0-.4-.1-.6-5.6-49.6-42.8-90.6-92.7-100l-3.2-.6h-.1l-.5-.1h-.1c-5.8-.9-11.8-1.4-17.7-1.4-50.1 0-94.2 32-109.6 79.7-2.1 6.6-3.7 13.5-4.6 20.5-.7 5-1 10-1 15.1 0 1.5 0 2.9.1 4.4.7 19.2 6.3 38 16.1 54.5.1.2.3.5.5.7l.1.1c1.1 1.1 2 2.2 2.7 3.4 9.4 14.2 21.7 25.7 35.7 34.4.4.5 1 .8 1.6 1 17.5 10.4 37.6 16.3 58.6 16.3 40.5 0 77.2-20.7 98.2-55.1.2-.2.4-.5.6-.7 10.6-17.8 16.2-38.1 16.2-59l-.1-.3zm-8.7-13.6c-2.6 2.8-6 6.8-7.3 9.7-.2.2-1.2.5-1.8.7-1.7.5-4 1.3-5.2 3.7-.7 1.5-.7 3.3.1 5.2 1.4 3.4 2.2 12-2.1 16.3-5.9 5.9-9.5 11.6-9.5 21.9 0 7.7-6.5 17.5-12.6 26-.7 1-1.5 1.9-2.3 2.9-.8 1-1.7 1.9-2.6 2.9-1.4 1.5-2.9 2.8-4.3 4.1-2.2 1.2-4.6 2.3-7.2 3.4-.9.4-1.8.8-2.7 1.1-.5-.8-1.1-2.1-1.9-4.1-2.6-6.6-4.9-16-4.9-20.1 0-2.7.7-4.2 1.5-6.1.9-2.1 2-4.5 2-8.2 0-4.3-2.1-7.1-3.7-9.1-1.3-1.7-2-2.7-2-4.1 0-7-3.9-10.9-7-13.9l-.4-.4c-3.5-3.5-8.6-1.4-14 .9-3 1.2-6.3 2.6-8.4 2.6-4.2 0-11.6-7.2-15.6-13.6-3.2-5.2-1.8-24.9 4.4-29.4 9.1-6.7 11.8-14.2 11.9-14.5.6-1.7-.1-3.5-1.6-4.5-2.7-1.7-3.2-3.5-3.3-4.7-.4-4 3-9.2 5.3-11.5 1-1 4.9-1.3 7.3-1.5 3.6-.3 6.7-.6 8.7-2.5 2.9-2.9 2.1-6.6 1.6-9.3-.2-1.1-.4-2.2-.5-2.9.3-.8 3.3-3.3 10.1-5.8 6.1-2.1 15-11 15.8-11.8l1.5-1.3c27.6 16.5 46.5 45.1 50.7 77.9zM156.8 48.1c3.9 0 7.9.3 11.7.7l-1.9 3.4c-.1.1-9.5 14.8-22.3 17.2-15.1 2.8-17 4.1-21.2 8.4-1.2 1.2-2.6 1.5-2.7 1.6-.1-.1-.2-.5-.2-1.3 0-1.6.4-3.4.7-4.9.6-2.8 1.3-6-1.2-8-2.6-2.2-6.2-.7-7.8-.1l-1.4.6c-5.1 2-9.5 3.8-10.3 7.9-.5 2.4.5 4.5 1.6 5.9-3 1.2-8 4.1-5.8 11.1.8 2.5 1.5 4.4 2.2 5.9.5 1.1 1 2.5 1 2.9 0 0-.1.3-.9 1.1l-.1.1c-.3-.2-.8-.5-1.1-.7-1.5-1-3.6-2.4-6.3-2.4-6.1 0-6.1 6.1-6.1 8.1 0 .7 0 1.8-.1 2.3-.6.1-1.5.1-2.2.1-2.6 0-6.1.1-9.2 2.1-2.5 1.6-4.3 4.3-5.3 7.8-.5 1.6-1.2 3.3-2.2 4.9-.3.4-.5.8-.8 1.2-.6.8-1.2 1.6-1.9 2.4-.3.4-.7.8-1.1 1.1-1.1 1.1-2.3 2.2-3.6 3.2-.4.3-.9.7-1.3 1-1.7 1.2-3.6 2.3-5.5 3.3.8-4.2 1.8-8.3 3.1-12.4C68.9 78 110 48.1 156.8 48.1zM67.6 214.4c-1-1.5-2.1-2.8-3.4-4.2-9-15.3-14.1-32.7-14.8-50.5 0-1.1-.1-2.2-.1-3.4.2.5.3 1 .5 1.5.4.9.8 1.8 1.3 2.7.9 1.5 1.9 2.9 3.1 4.1.5.5 1.1.9 1.8 1.3.1 0 .5.2.6.3.4.2.8.3 1.3.4.6.1 1.1.1 1.8.1.6 0 1.2-.1 1.8-.3l1.4-.3-.9-3.7 1.4 3.6.6-.1c1.2-.2 1.9-.2 2.7.1 1.9.9 5.8 3.2 10 6 1.8 1.2 3.7 2.5 5.3 3.7 3.2 2.3 4.6 3.6 5.1 4.1 1 1 1.3 1.8 1.7 3 .8 2 1.8 4.8 6 6.9 1.4.7 3.3 1.5 5.5 2.4 3.6 1.4 13.2 5.3 14 7.5 0 1.8-.6 2.5-1.6 3.7-1.1 1.3-2.9 3.4-2.9 6.7 0 .7.1 1.5.2 2.4.2 1 .4 2.1.7 3.2.7 3 1.6 7.2.3 8.6-1.2 1.2-2.6 1.8-4.2 2.5-2.9 1.3-6.4 2.8-8.8 7.7-.7 1.5-1.3 5.6-1.8 9.4-11.1-7.8-20.9-17.7-28.6-29.4zm196.7-58.8c0 19.4-5.2 38.4-15 54.7-.2.2-.4.4-.5.7-19.6 32.3-53.9 51.6-91.7 51.6-19.1 0-37.5-5.2-53.5-14.4.3-3.4 1-9.4 1.4-10.5 1.2-2.4 2.6-3 5-4.1 1.9-.8 4.3-1.9 6.5-4.1 4.4-4.4 2.9-10.9 1.8-15.7-.2-1-.4-1.9-.6-2.7-.1-.4-.1-.8-.1-1.2 0-.4.1-.6 1-1.7 1.4-1.6 3.4-4 3.4-8.7 0-7.1-10-11.1-18.9-14.6-2-.8-3.8-1.5-4.8-2-1.5-.8-1.7-1.3-2.3-2.8-.6-1.5-1.3-3.5-3.5-5.7-1.2-1.2-3.2-2.9-6-4.9-1.7-1.3-3.6-2.6-5.6-3.9-2.2-1.5-7.8-5.1-11.2-6.6-2.9-1.3-5.6-1-7.3-.7l-2.4.7c-.2 0-.3.1-.5.1-.6-.7-1.2-1.4-1.7-2.3-.3-.5-.6-1.1-.8-1.7-.2-.4-.3-.8-.4-1.2l-.2-.6c-.2-.9-.4-1.8-.5-2.7-.4-3.4 0-6.9.5-9.6 1.7-1 3.4-2 5-3.1.5-.4 1-.8 1.6-1.2 1.6-1.2 3-2.5 4.4-3.9.5-.5.9-.9 1.3-1.4.9-1 1.7-2 2.4-3 .4-.5.7-1.1 1.1-1.6 1.4-2.3 2.5-4.6 3.1-6.9.5-1.7 1.2-2.8 2.1-3.4 1.3-.8 3.2-.8 5.1-.9 2.5 0 5.4-.1 7.5-2.1 2.3-2.2 2.4-5.3 2.4-7.5.1.1.3.2.4.3 1.9 1.3 6.3 4.3 11-.3 4.6-4.6 3.2-8.2 1.6-12.3-.6-1.4-1.2-3.1-2-5.4-.2-.5-.2-.8-.2-.8.3-.4 1.8-.9 2.6-1.2 2-.7 4.7-1.7 5.4-4.6.7-2.9-1.5-5.1-2.2-5.8-.3-.3-.5-.6-.7-.8 1.1-.7 3.2-1.5 5-2.3-.3 1.5-.6 3.3-.6 5.2 0 5.7 3.3 7.7 4.8 8.3 3.5 1.4 8 .2 11.2-3.1 2.9-3 3.7-3.7 17.2-6.2 16.1-3 26.9-19.9 27.5-20.8l3.5-6.2.3.1c10.1 1.9 19.7 5.3 28.5 9.8-3.4 3.3-9.5 8.6-12.7 9.7-7 2.4-15.3 6.6-15.3 12.8 0 1.7.3 3.3.6 4.7.1.7.4 1.8.5 2.2-.9.2-2.6.4-3.8.5-4.3.4-9.1.8-12 3.7-3.2 3.2-8.3 10.5-7.5 17.7.3 2.3 1.2 5.4 4.1 8.2-1.3 2.1-3.7 5.4-8 8.5-9.8 7.2-11.5 31.6-6.4 39.7 3.7 6 13.1 17.2 22.2 17.2 3.6 0 7.6-1.6 11.4-3.2 1.9-.8 4.8-2 6.1-2.1 2.9 2.9 4.6 4.8 4.6 8.5 0 4.1 2 6.7 3.6 8.8 1.4 1.8 2.1 2.8 2.1 4.4 0 2.1-.6 3.3-1.3 5.1-1 2.2-2.2 4.9-2.2 9.2 0 5.7 2.8 16.3 5.5 23 1.6 4 3.1 6.6 4.6 8.1.5.5 1 .9 1.6 1.2.5.3 1.1.4 1.7.4.5 0 .9-.1 1.4-.3 1.9-.7 3.7-1.5 5.5-2.3 2.9-1.3 5.5-2.5 8.1-3.8.2-.1.5-.3.7-.4 1.8-1.5 3.5-3.2 5.2-4.9 1-1.1 2-2.2 2.9-3.2 1-1.1 1.8-2.3 2.6-3.4 6.8-9.5 14.1-20.5 14.1-30.5 0-7.8 2.4-11.7 7.2-16.5 6.3-6.3 6.4-16.9 4.3-23.4 1.9-.6 4.9-1.7 6.2-4.8.2-.5.6-1.1 1.1-1.9 0 .9.1 1.8.1 2.6l-.2.2zm-29-118.8c4.9 0 9.5-1.9 13-5.4 1.1-1.1 2.1-2.4 2.9-3.7.6-1.1.9-2.2 1.3-3.4.4-.7.8-1.5.9-2.3v-.1c1.1-5.9-.6-12.1-5-16.5-3.6-3.6-8.4-5.2-13.3-5.2-.2 0-.3-.2-.4-.2-1-.1-1.9.1-2.7.3-2 .4-4 1.1-5.9 2.2-1.4.8-2.6 1.8-3.7 2.9-3.5 3.5-5.4 8.1-5.4 13s1.9 9.5 5.4 13c3.4 3.5 8 5.4 12.9 5.4zm9-27.3c3.1 3.1 4.3 7.5 3.4 11.6-1.8-.2-6.4-2.5-10.3-6.4-3.2-3.3-4.2-7.7-3.9-8.7.6-.1 1.2-.2 1.9-.2 3.2 0 6.4 1.2 8.9 3.7zm-17.9 0c.4-.4 1-.8 1.5-1.2.6 3.6 2.6 7.6 5.4 10.5 3.2 3.2 7.8 6.4 11.8 7.5-.3.3-.5.7-.8 1-4.8 4.8-13.1 4.8-17.9 0-2.4-2.4-3.7-5.6-3.7-8.9 0-3.4 1.3-6.5 3.7-8.9zM56.5 17l7.8.9.9 7.8c.2 1.5 1.4 2.6 2.9 2.6s2.7-1.1 2.9-2.6l.9-7.8 7.8-.9c1.5-.2 2.6-1.4 2.6-2.9s-1.1-2.7-2.6-2.9l-7.8-.9-.9-7.8C70.7 1.1 69.5 0 68 0s-2.7 1.1-2.9 2.6l-.9 7.8-7.8.9c-1.5.2-2.6 1.4-2.6 2.9.1 1.4 1.2 2.6 2.7 2.8zm116 14.2c.6.6 1.3.8 2 .8s1.5-.3 2-.8l3.8-3.8c1.1-1.1 1.1-3 0-4.1l-3.8-3.8c-.5-.5-1.3-.8-2-.8s-1.5.3-2 .8l-3.8 3.8c-.5.5-.8 1.3-.8 2s.3 1.5.8 2l3.8 3.9zm118.7 95.1-3.8-3.8c-1.1-1.1-3-1.1-4.1 0l-3.8 3.8c-.5.5-.8 1.3-.8 2 0 .8.3 1.5.8 2l3.8 3.8c.6.6 1.3.8 2 .8s1.5-.3 2-.8l3.8-3.8c1.2-1.1 1.2-2.9.1-4zM82.5 39.8l3.8 3.8c.6.6 1.3.8 2 .8s1.5-.3 2-.8l3.8-3.8c.5-.5.8-1.3.8-2s-.3-1.5-.8-2L90.3 32c-1.1-1.1-3-1.1-4.1 0l-3.8 3.8c-1 1-1 2.9.1 4zM40.9 110c.6.6 1.3.8 2 .8s1.5-.3 2-.8l3.8-3.8c.5-.5.8-1.3.8-2 0-.8-.3-1.5-.8-2L45 98.3c-1.1-1.1-3-1.1-4.1 0l-3.8 3.8c-.5.5-.8 1.3-.8 2 0 .8.3 1.5.8 2l3.8 3.9zm-24.2 32c-1.1-1.1-3-1.1-4.1 0l-3.8 3.8c-1.1 1.1-1.1 3 0 4.1l3.8 3.8c.5.5 1.3.8 2 .8.8 0 1.5-.3 2-.8l3.8-3.8c.5-.5.8-1.3.8-2s-.3-1.5-.8-2l-3.7-3.9zM148.5 13.5c.6.6 1.3.8 2 .8s1.5-.3 2-.8l3.8-3.8c.5-.5.8-1.3.8-2s-.3-1.5-.8-2l-3.8-3.8c-1.1-1.1-3-1.1-4.1 0l-3.8 3.8c-1.1 1.1-1.1 3 0 4.1l3.9 3.7zm-61.9 256c-.5-.5-1.3-.8-2-.8-.8 0-1.5.3-2 .8l-3.8 3.8c-.5.5-.8 1.3-.8 2s.3 1.5.8 2l3.8 3.8c.6.6 1.3.8 2 .8s1.5-.3 2-.8l3.8-3.8c1.1-1.1 1.1-3 0-4.1l-3.8-3.7zm-24-17.7c-1.1-1.1-3-1.1-4.1 0l-3.8 3.8c-1.1 1.1-1.1 3 0 4.1l3.8 3.8c.6.6 1.3.8 2 .8s1.5-.3 2-.8l3.8-3.8c.5-.5.8-1.3.8-2s-.3-1.5-.8-2l-3.7-3.9zm216.9-4.2-3.3-.4-.4-3.3c-.2-1.5-1.4-2.6-2.9-2.6s-2.7 1.1-2.9 2.6l-.4 3.3-3.3.4c-1.5.2-2.6 1.4-2.6 2.9s1.1 2.7 2.6 2.9l3.3.4.4 3.3c.2 1.5 1.4 2.6 2.9 2.6s2.7-1.1 2.9-2.6l.4-3.3 3.3-.4c1.5-.2 2.6-1.4 2.6-2.9-.1-1.5-1.2-2.7-2.6-2.9zM43.3 226.8l-4.9-.5-.5-4.9c-.2-1.5-1.4-2.6-2.9-2.6s-2.7 1.1-2.9 2.6l-.5 4.9-4.9.5c-1.5.2-2.6 1.4-2.6 2.9s1.1 2.7 2.6 2.9l4.9.5.5 4.9c.2 1.5 1.4 2.6 2.9 2.6s2.7-1.1 2.9-2.6l.5-4.9 4.9-.5c1.5-.2 2.6-1.4 2.6-2.9-.1-1.5-1.2-2.8-2.6-2.9zm138 60.7c-1.1-1.1-3-1.1-4.1 0l-3.8 3.8c-.5.5-.8 1.3-.8 2s.3 1.5.8 2l3.8 3.8c.6.6 1.3.8 2 .8s1.5-.3 2-.8l3.8-3.8c1.1-1.1 1.1-3 0-4.1l-3.7-3.7zm27.7-19.8c-.5-.5-1.3-.8-2-.8-.8 0-1.5.3-2 .8l-3.8 3.8c-.5.5-.8 1.3-.8 2s.3 1.5.8 2l3.8 3.8c.6.6 1.3.8 2 .8s1.5-.3 2-.8l3.8-3.8c1.1-1.1 1.1-3 0-4.1l-3.8-3.7z"/></svg>