<svg xmlns="http://www.w3.org/2000/svg" viewBox="0 0 300 300" style="enable-background:new 0 0 300 300" xml:space="preserve"><path style="fill:#e30613" d="m164.4 20.4-36.6 27L59 5.7l27.8 65.7-78.7-8.3L69 124.3l-65-7.2L47.3 170 0 192.3l64.5 10-46.4 47.1 51.8-17-22 67.6 69.5-57.1 30.3 47.7 19.6-40.2 34.8 47.1 3.7-57.7 53.2 49.5-10-76.3 47.1 6.1-48.8-51.8 46.4-11.7-44-23.4 48.8-37.1-52.2-.4L269 44.2l-49.9 40.2L227.7 4l-36.6 52.2z"/><path d="M155 187.6c3 3.4 4.5 7.6 4.5 12.5 0 3.4-.8 6.7-2.4 10-1.6 3.3-3.7 6-6.5 8-2.8 2.1-5.9 3.1-9.4 3.1-4.2 0-7.8-1.7-10.8-5.1-2.9-3.4-4.5-7.6-4.6-12.5 0-3.4.8-6.7 2.3-10 1.5-3.3 3.7-6 6.4-8 2.8-2.1 5.9-3.1 9.4-3.1 4.4 0 8.1 1.7 11.1 5.1zm14.1-107.3c6 0 10.6 1.5 13.9 4.5 3.3 3 5 7.2 5 12.7 0 5.5-1.7 11.8-5.1 18.9l-22.3 43.3c-1.3 2.9-2.6 4.9-4 6.1-1.4 1.2-3 1.8-5 1.8-4.2 0-6.2-3-6-8.9l-1.1-50.3c.7-18.7 8.9-28.1 24.6-28.1z" style="fill:#fff"/></svg>