<svg fill="#fff" xmlns="http://www.w3.org/2000/svg" viewBox="0 0 300 300"><path d="M70.9 123.5H6c-3.3 0-6 2.7-6 6s2.7 6 6 6h64.9c3.3 0 6-2.7 6-6-.1-3.3-2.7-6-6-6zm0 35.2H41c-3.3 0-6 2.7-6 6s2.7 6 6 6h29.9c3.3 0 6-2.7 6-6s-2.7-6-6-6zm0 35.3H21.6c-3.3 0-6 2.7-6 6s2.7 6 6 6h49.3c3.3 0 6-2.7 6-6s-2.7-6-6-6zm219.3-73.5c-4.9-10.4-11.3-19.8-19.3-27.9-3.8-4-8.1-7.7-12.4-11l7.8-10.4c2-2.7 1.5-6.5-1.2-8.4-2.7-2-6.5-1.5-8.4 1.2l-8.3 11c-5.5-3.3-11.3-6-17.3-8.2-5.2-1.8-10.6-3.3-16.1-4.4-3.5-.6-7.2-1.1-10.7-1.3V43h12.1c3.3 0 6-2.7 6-6s-2.7-6-6-6H180c-3.3 0-6 2.7-6 6s2.7 6 6 6h12.1v17.7c-13.9.5-27.7 3.8-40.4 9.6-10.4 4.9-19.8 11.2-28.1 19.2-11.6 11-20.5 24.8-26 39.8-2 5.2-3.4 10.9-4.5 16.5s-1.6 11.2-1.8 16.8c-.4 16.1 3 32.2 10 46.8 4.9 10.2 11.2 19.5 19.2 27.7 11.1 11.6 24.9 20.5 39.9 25.9 5.2 1.8 10.6 3.3 16.1 4.4 5.5 1 11 1.6 16.6 1.7h2.7c15.1 0 30.3-3.3 43.9-9.8 10.2-4.8 19.6-11.1 27.8-18.9 11.7-11.1 20.7-24.9 26.2-40 2-5.2 3.4-10.9 4.4-16.3 1.1-5.6 1.7-11.3 1.8-17 .5-16.1-2.9-32.2-9.7-46.6zm-3.8 61.2c-1 5-2.2 9.8-3.9 14.5-4.9 13.3-12.8 25.6-23.2 35.4-7.2 6.8-15.5 12.6-24.6 16.7-12.8 6-27.2 9-41.1 8.5-4.9-.1-9.8-.6-14.6-1.6-4.9-.9-9.6-2.2-14.3-3.8-13.3-4.8-25.5-12.7-35.3-22.9-7-7.2-12.7-15.5-17-24.5-6.1-12.8-9.1-27.2-8.8-41.4.1-5 .6-10 1.6-14.9 1-5 2.3-9.9 3.9-14.5 4.8-13.3 12.7-25.4 22.9-35.1 7.3-7 15.6-12.7 24.9-17 12.1-5.6 25.5-8.5 38.8-8.5h2.3c4.9.1 9.8.6 14.6 1.6 4.9.9 9.6 2.2 14.3 3.9 13.3 4.8 25.5 12.6 35.3 22.8 7 7.3 12.7 15.6 17.1 24.8 6 12.8 9 27 8.7 41.1-.1 4.9-.6 10-1.6 14.9z"/><path d="m233.1 123-25.7 23.3c-1.3-.9-2.7-1.5-4.1-2.1-1.1-.4-2.2-.7-3.3-.9-1.2-.2-2.3-.4-3.4-.4-3.3-.1-6.7.6-9.8 2.1-2.2 1-4.1 2.3-5.9 4-2.4 2.3-4.3 5.1-5.4 8.3-.4 1.1-.7 2.2-1 3.4-.2 1.2-.4 2.3-.4 3.5-.1 3.4.6 6.7 2.1 9.8 1 2.2 2.3 4 4 5.7 2.3 2.4 5.2 4.3 8.3 5.4 1.1.4 2.2.7 3.3.9 1.1.2 2.3.4 3.4.4h.6c3.2 0 6.3-.7 9.1-2.1 2.1-1 4.1-2.3 5.9-3.9 2.4-2.3 4.3-5.2 5.5-8.3.4-1.1.7-2.2 1-3.4.2-1.2.4-2.3.4-3.5.1-3.3-.6-6.7-2.1-9.8 0-.1-.1-.1-.1-.2l25.9-23.3c2.4-2.2 2.7-6.1.5-8.5-2.4-2.4-6.2-2.6-8.8-.4zm-27.7 43.5c-.1.5-.2 1.1-.4 1.6-.5 1.3-1.3 2.7-2.4 3.7-.7.7-1.6 1.3-2.6 1.7-1.3.6-2.8.9-4.3.9-.5 0-1.1-.1-1.6-.1-.5-.1-1-.2-1.5-.4-1.3-.5-2.7-1.3-3.7-2.4-.7-.7-1.3-1.6-1.8-2.6-.6-1.3-1-2.8-1-4.3 0-.5.1-1.1.1-1.6.1-.5.2-1.1.4-1.6.5-1.3 1.3-2.7 2.4-3.7.7-.7 1.6-1.3 2.6-1.8 1.3-.6 2.7-.9 4-.9h.2c.5 0 1 .1 1.6.1.5.1 1 .2 1.5.4 1.5.5 2.7 1.3 3.7 2.4.7.7 1.3 1.7 1.8 2.6.6 1.3 1 2.8.9 4.3.2.6.1 1.2.1 1.7z"/></svg>