<svg fill="#FFF" viewBox="0 0 300 300" xmlns="http://www.w3.org/2000/svg"><path d="M280 6c7.7 0 14 6.3 14 14v260c0 7.7-6.3 14-14 14H20c-7.7 0-14-6.3-14-14V20c0-7.7 6.3-14 14-14h260m0-6H20C9 0 0 9 0 20v260c0 11 9 20 20 20h260c11 0 20-9 20-20V20c0-11-9-20-20-20z"/><path d="M268.7 40h-236c-2.5 0-4.5-2-4.5-4.5s2-4.5 4.5-4.5h236c2.5 0 4.5 2 4.5 4.5s-2 4.5-4.5 4.5zm-110 39.5h-126c-2.5 0-4.5-2-4.5-4.5s2-4.5 4.5-4.5h126c2.5 0 4.5 2 4.5 4.5s-2 4.5-4.5 4.5zm-50 39.5h-76c-2.5 0-4.5-2-4.5-4.5s2-4.5 4.5-4.5h76c2.5 0 4.5 2 4.5 4.5s-2 4.5-4.5 4.5zM80.2 267.6c-3.9-3.9-5.8-9.2-5.8-16v-34.7c0-6.9 2-12.2 5.8-16 3.9-3.8 9.6-5.7 17.1-5.7s13.1 1.9 17.1 5.7c3.9 3.8 5.8 9.2 5.8 16.1v34.7c0 6.9-2 12.2-5.8 16-3.9 3.8-9.6 5.7-17.1 5.7-7.5-.1-13.2-2-17.1-5.8zm23.4-11.1c1.3-2 2.1-4.8 2.1-8.5v-27.4c0-3.7-.7-6.6-2.1-8.5s-3.5-3-6.4-3-5 1-6.4 3-2.1 4.8-2.1 8.5V248c0 3.7.7 6.6 2.1 8.5 1.3 2 3.5 3 6.4 3s5-1.1 6.4-3zm103.3-60.4H220l-40 76.4h-13.1zm-22.9 2.7c-2.4-2.3-5.7-3.6-10.2-3.6-4.4 0-7.8 1.2-10.1 3.6-2.4 2.3-3.6 5.7-3.6 9.9v6.6c0 4.2 1.2 7.5 3.6 9.9 2.4 2.3 5.8 3.6 10.1 3.6 4.4 0 7.8-1.2 10.1-3.5 2.4-2.3 3.6-5.7 3.6-10v-6.4c.1-4.3-1.1-7.6-3.5-10.1zm-7.8 16.1c0 1-.2 1.7-.6 2.2-.4.5-1 .8-1.8.8s-1.3-.3-1.8-.7c-.4-.5-.6-1.3-.6-2.2v-5.7c0-1 .2-1.7.6-2.2.4-.5 1-.7 1.8-.7s1.3.3 1.8.7c.4.5.6 1.3.6 2.2v5.6zm45.9 28.5c-2.4-2.3-5.7-3.6-10.2-3.6-4.4 0-7.8 1.2-10.1 3.6-2.4 2.3-3.6 5.7-3.6 9.9v6.6c0 4.2 1.2 7.5 3.6 9.9 2.4 2.3 5.8 3.6 10.1 3.6 4.4 0 7.8-1.2 10.1-3.5 2.4-2.3 3.6-5.7 3.6-10v-6.5c.1-4.3-1.1-7.7-3.5-10zm-7.8 16c0 1-.2 1.7-.6 2.2-.4.5-1 .8-1.8.8s-1.3-.3-1.8-.7c-.4-.5-.6-1.3-.6-2.2v-5.7c0-1 .2-1.7.6-2.2.4-.5 1-.7 1.8-.7s1.3.3 1.8.7c.4.5.6 1.3.6 2.2v5.6zM34 162h-.5c-3.3 0-6-2.7-6-6s2.7-6 6-6h.5c3.3 0 6 2.7 6 6s-2.7 6-6 6zm209.7 0h-1c-3.3 0-6-2.7-6-6s2.7-6 6-6h1c3.3 0 6 2.7 6 6s-2.7 6-6 6zm-23.3 0h-1c-3.3 0-6-2.7-6-6s2.7-6 6-6h1c3.3 0 6 2.7 6 6s-2.7 6-6 6zm-23.3 0h-1c-3.3 0-6-2.7-6-6s2.7-6 6-6h1c3.3 0 6 2.7 6 6s-2.7 6-6 6zm-23.3 0h-1c-3.3 0-6-2.7-6-6s2.7-6 6-6h1c3.3 0 6 2.7 6 6s-2.7 6-6 6zm-23.3 0h-1c-3.3 0-6-2.7-6-6s2.7-6 6-6h1c3.3 0 6 2.7 6 6s-2.7 6-6 6zm-23.3 0h-1c-3.3 0-6-2.7-6-6s2.7-6 6-6h1c3.3 0 6 2.7 6 6s-2.7 6-6 6zm-23.3 0h-1c-3.3 0-6-2.7-6-6s2.7-6 6-6h1c3.3 0 6 2.7 6 6s-2.7 6-6 6zm-23.3 0h-1c-3.3 0-6-2.7-6-6s2.7-6 6-6h1c3.3 0 6 2.7 6 6s-2.7 6-6 6zm-23.3 0h-1c-3.3 0-6-2.7-6-6s2.7-6 6-6h1c3.3 0 6 2.7 6 6s-2.7 6-6 6zm209.2 0h-.5c-3.3 0-6-2.7-6-6s2.7-6 6-6h.5c3.3 0 6 2.7 6 6s-2.7 6-6 6z"/></svg>