<svg xmlns="http://www.w3.org/2000/svg" viewBox="0 0 300 300" style="enable-background:new 0 0 300 300" xml:space="preserve"><path d="M277.4 92.6c-14.6-15.7-34.3-25.3-55.5-26.8-1.3-.1-3.3-.2-5.3-.2h-2.3c-6.5 0-23.5 1.2-41.6 11.9-8.4 5-16 11.4-22.7 19.1-16-19.6-39.8-31-65.4-31C37.9 65.5 0 103.4 0 150c0 45.3 35.4 82.4 80.7 84.4.7 0 1.8.1 2.8.1h2.2c3.6 0 9.4-.3 16.6-1.9 8.8-2 17.2-5.3 25.1-10 8.4-5 16-11.4 22.7-19.1 16 19.5 39.8 31 65.4 31 46.6 0 84.5-37.9 84.5-84.5 0-21.3-8-41.7-22.6-57.4zM119.9 150c0 19.9-16.2 36.1-36.1 36.1-19.7 0-35.6-15.7-36.1-35.3v-1.7c.5-19.5 16.4-35.2 36.1-35.2 19.5 0 35.4 15.5 36.1 34.9v1.2zm95.9 36.7c-19.5 0-35.5-15.5-36.1-34.9v-1.1c0-19.9 16.2-36.1 36.1-36.1s36.1 16.2 36.1 36.1-16.2 36-36.1 36z" style="fill:#db463e"/><path d="M220.1 85.2c-1.4-.1-2.9-.2-4-.2h-.4c-.2 0-.8-.1-1.8-.1-4.9 0-17.7.9-31.7 9.2-8 4.7-15 11.1-21.1 19-7.3 9.5-13.1 21.3-17.3 35.1-6.7 21.9-17.3 37.6-31.8 46.6-11.5 7.2-22.1 8-26.1 8-.8 0-1.4 0-1.7-.1-.8 0-1.6 0-2.4-.1-28.3-1.3-50.4-24.4-50.4-52.7 0-29.1 23.7-52.8 52.8-52.8 18 0 34.7 9.1 44.4 24.3l.5.8.8-.5 8.7-5.6.8-.5-.5-.8C126.9 96.2 106.4 85 84.2 85c-35.8 0-65 29.2-65 65 0 34.9 27.3 63.4 62.1 64.9.8 0 1.5.1 2 .1h2.1c4.9 0 17.7-.9 31.7-9.2 8-4.7 15-11.1 21.1-19 7.3-9.5 13.1-21.3 17.3-35.1 6.7-21.9 17.4-37.6 31.8-46.7 11.5-7.2 22.1-8 26.1-8 .4 0 1.1 0 1.7.1 1.3 0 2.6.1 4 .1 27.4 2 48.8 25.2 48.8 52.6 0 29.1-23.7 52.8-52.8 52.8-18 0-34.6-9.1-44.4-24.3l-.5-.8-.8.5-8.7 5.6-.8.5.5.8c12 18.7 32.5 29.9 54.7 29.9 35.8 0 65-29.2 65-65 .1-33.6-26.3-62.1-60-64.6z" style="fill:#fff"/><path d="M179.7 150.6c0-19.9 16.2-36.1 36.1-36.1s36.1 16.2 36.1 36.1-16.2 36.1-36.1 36.1c-19.5 0-35.5-15.5-36.1-34.9v-1.2z" style="opacity:.8;fill:#872323"/><path d="M119.9 150c0 19.9-16.2 36.1-36.1 36.1-19.7 0-35.6-15.7-36.1-35.3v-1.7c.5-19.5 16.4-35.2 36.1-35.2 19.5 0 35.4 15.5 36.1 34.9v1.2z" style="opacity:.8;fill:#ffb0b0"/></svg>