<svg xmlns="http://www.w3.org/2000/svg" viewBox="0 0 300 300" style="enable-background:new 0 0 300 300" xml:space="preserve"><path d="M150 3.7C67.2 3.7 0 70.8 0 153.7 0 220 43 276.2 102.6 296.1c7.5 1.4 10.2-3.3 10.2-7.2 0-3.6-.1-15.4-.2-27.9-41.7 9.1-50.5-17.7-50.5-17.7-6.8-17.3-16.7-22-16.7-22-13.6-9.3 1-9.1 1-9.1 15.1 1.1 23 15.5 23 15.5 13.4 22.9 35.1 16.3 43.7 12.5 1.3-9.7 5.2-16.3 9.5-20.1-33.3-3.8-68.3-16.7-68.3-74.2 0-16.4 5.9-29.8 15.5-40.3-1.6-3.8-6.7-19 1.5-39.7 0 0 12.6-4 41.3 15.4 12-3.3 24.8-5 37.5-5 12.7.1 25.6 1.7 37.6 5 28.6-19.4 41.2-15.4 41.2-15.4 8.2 20.7 3 35.9 1.5 39.7 9.6 10.5 15.4 23.9 15.4 40.3 0 57.6-35.1 70.3-68.5 74 5.4 4.7 10.2 13.8 10.2 27.8 0 20.1-.2 36.2-.2 41.2 0 4 2.7 8.7 10.3 7.2C257.1 276.2 300 220 300 153.7c0-82.9-67.2-150-150-150" style="fill-rule:evenodd;clip-rule:evenodd;fill:#fff"/></svg>