<svg xmlns="http://www.w3.org/2000/svg" viewBox="0 0 300 300" fill="#fff"><path d="M153.1 296.8c-2.3 0-4.2-1.8-4.4-4.1-.1-2.4 1.7-4.5 4.1-4.6 46.2-2.6 85.6-21.6 110.9-53.4 23.4-29.5 32.3-68.3 25-109.1C276 53.6 205.4 3.2 131.3 13.2 57.2 23.2 1.4 92.9 9.6 165.4c8 67.6 49.7 98.3 83.2 112.1 1 .4 2.1.9 3.1 1.3 4.5 1.9 12.2 5.1 15.9 5.8.9-4.3.7-15.2.6-20.7v-1.4c-21.3 1.8-29.8-7.5-34.5-12.6l-.2-.2c-4.7-5.1-7.8-10.3-11.7-16.8-1-1.7-2.1-3.5-3.3-5.4-2.3-3.7-5.7-5-8.9-6.1-3.4-1.2-7.7-2.8-8.6-7.6-.6-2.8.9-5.5 3.7-6.8 7.7-3.6 27.8 2.1 41.9 19.4 7 8.6 14.9 10.7 23.7 6.1.4-2.6 1.1-5.2 2-7.7.6-1.7 1.5-3 2.4-4.2-10.4-1.9-32-5.8-46.2-25.6-11.8-16.6-15.1-38.4-8.8-58.3 2.5-7.8 6.5-15.1 11.8-21.6-1.9-4.9-2.9-10.1-3-15.4-.1-6.6 1.3-13.2 4.1-19.2.7-1.6 2.3-2.6 4.1-2.5 7.5.2 14.8 1.6 21.8 4.1 6.1 2.1 11.8 5.1 17 8.8 9.6-3 19.5-4.6 29.5-4.8 11.2-.2 22.4 1.3 33.2 4.6 5.5-4.6 11.7-8.1 18.4-10.6 5.7-2.1 11.7-3.4 17.8-3.7 1.7-.1 3.3.8 4.1 2.3 3.2 6.1 5 12.9 5.1 19.7.1 5.5-.9 11-2.8 16.1 6.3 8.2 10.6 17.3 12.9 27.1 2.8 12 5.1 35.3-10.9 55.8-14 18-34.9 21-45 22.5-.7.1-1.4.2-2.2.3.3.6.7 1.1 1 1.7 2.2 3.7 5.1 8.7 7 15.8 3.5 12.9 2.1 36.3 2.1 37.3-.1 2.4-2.2 4.2-4.6 4.1-2.4-.1-4.2-2.2-4.1-4.6 0-.2 1.3-23-1.8-34.6-1.6-5.9-4.1-10.2-6.1-13.6-2.3-3.8-4.2-7.1-2.7-10.7 1.3-3.2 4.5-3.6 10.2-4.4 9.6-1.4 27.5-4 39.3-19.2 13.7-17.7 11.7-38 9.3-48.5-2.2-9.3-6.5-17.9-12.8-25.5a4.3 4.3 0 0 1-.6-4.6c2.1-4.7 3.2-9.8 3.1-14.9-.1-4.5-1-9-2.8-13.2-4.2.5-8.4 1.5-12.4 3-6.5 2.4-12.4 5.9-17.5 10.6-1.2 1-2.8 1.4-4.3.9-10.6-3.5-21.5-5.1-32.6-4.9-9.9.2-19.6 1.9-29 5.1-1.4.5-2.9.2-4-.6-5.1-3.8-10.6-6.8-16.6-8.9-5.2-1.9-10.7-3-16.2-3.4-1.5 4.1-2.3 8.4-2.2 12.7.1 4.9 1.2 9.9 3.3 14.4.7 1.6.5 3.4-.7 4.7-5.4 6.1-9.4 13.1-11.8 20.6-5.5 17.3-2.7 36.2 7.5 50.6 12.1 17 31.4 20.4 40.7 22.1 5.1.9 8.1 1.5 9 4.9.8 3.5-1.3 6.1-2.8 8-.8 1-1.6 2-2 2.9-.9 2.5-1.6 5.1-1.8 7.8-.1 1.4-.9 2.6-2.1 3.3-13.2 8.2-26.6 5.6-36.8-7-6.1-7.6-13.1-12.1-18.9-14.6 1.8 1.4 3.6 3.2 5.1 5.6 1.2 1.9 2.3 3.8 3.3 5.5 3.8 6.3 6.6 10.9 10.7 15.4l.2.2c4.5 4.9 11.3 12.4 31.7 9.3 1.3-.2 2.5.2 3.5 1s1.5 2 1.5 3.3c0 1.8 0 3.9.1 6.2.4 20-.1 28.3-6.1 29.6-4.3.9-11.4-1.8-22.5-6.5-1.1-.4-2.1-.9-3.1-1.3-35.7-14.7-80-47.3-88.6-119.1-4.3-38.3 7.1-76.1 32-106.9C57.6 29.3 92.2 9.7 130.3 4.5c78.6-10.6 153.6 43 167.1 119.5 7.7 43.3-1.8 84.5-26.8 116-26.8 33.9-68.5 54-117.2 56.7-.1.1-.2.1-.3.1z"/></svg>