<svg xmlns="http://www.w3.org/2000/svg" x="0" y="0" viewBox="0 0 300 300" style="enable-background:new 0 0 300 300" xml:space="preserve"><style>.st0{fill:#dc483e}.st1{fill:#f9cc22}.st5{fill:#fff}</style><circle class="st0" cx="150" cy="150" r="150"/><path class="st1" d="M80.2 37c-1-1.9-1.6-3.6-1.9-5.1-.3-1.5-.2-2.8.1-4s.9-2.2 1.8-3.1c.9-.9 2-1.7 3.3-2.4.9-.5 1.7-.9 2.5-1.1.7-.3 1.4-.5 2-.7.6-.2 1.2-.3 1.8-.4l1.3 2.5c-.5.2-1.1.4-1.7.7-.5.2-1.1.5-1.7.8-.6.3-1.3.6-1.9 1-1.1.6-2 1.2-2.7 1.9s-1 1.4-1.2 2.1c-.1.8-.1 1.7.2 2.6.3 1 .8 2.1 1.5 3.4.7 1.3 1.4 2.4 2.1 3.2.7.8 1.4 1.4 2.2 1.8.7.4 1.6.5 2.4.4s1.8-.4 2.8-1c.4-.2.8-.5 1.2-.7.4-.2.6-.4.9-.6.3-.2.5-.4.7-.6l-2.7-5-3.6 1.9-1.6-3 6.8-3.7 5.4 10c-.4.5-.9 1.1-1.4 1.6-.5.5-1 1-1.7 1.5s-1.4 1-2.3 1.5c-1.4.8-2.8 1.3-4.1 1.6-1.3.3-2.5.2-3.7-.2s-2.4-1.1-3.5-2.3c-1.1-1-2.2-2.6-3.3-4.6zm17.1-20.7 7.8-2.7c.6-.2 1.1-.3 1.7-.4.6-.1 1.1-.1 1.7-.1.5 0 1.1.1 1.6.3.5.2 1 .5 1.4.9s.9.9 1.3 1.6c.4.6.8 1.4 1.1 2.4.2.6.4 1.2.4 1.7.1.5.1 1 0 1.5 0 .4-.1.8-.2 1.2-.1.4-.3.7-.4 1-.4.7-.9 1.2-1.5 1.6l7.3 7-4 1.4-6.6-6.4-3.5 1.2 2.6 7.7-3.5 1.2-7.2-21.1zm11.2 7.3c1.8-.6 2.4-2.1 1.6-4.4-.2-.6-.4-1.1-.7-1.5s-.6-.6-.9-.8c-.3-.2-.7-.3-1.1-.2-.4 0-.8.1-1.2.2l-4.2 1.4 2.3 6.7 4.2-1.4zm15.1-14.7 4.9-.8 10.9 20.7-4.1.7-2.8-5.6-7.5 1.3-.8 6.2-4 .7 3.4-23.2zm7.3 11.8-4.3-8.8h-.1l-1.1 9.7 5.5-.9zM145.3 10l-6.7.1-.1-3.4 17.1-.3.1 3.4-6.7.1.4 18.8-3.7.1-.4-18.8zm61.8 20c1-1.9 2.1-3.3 3.2-4.3s2.3-1.7 3.4-2.1c1.2-.4 2.4-.4 3.6-.1 1.2.3 2.5.8 3.8 1.5.9.5 1.6 1 2.3 1.5.6.5 1.2.9 1.6 1.3.5.4.9.9 1.3 1.3l-1.4 2.5c-.5-.3-1-.7-1.5-1-.5-.3-1-.6-1.6-1-.6-.4-1.2-.8-1.9-1.1-1.1-.6-2.1-1-3-1.2-.9-.2-1.7-.1-2.4.2-.7.3-1.4.8-2.1 1.6-.7.8-1.4 1.8-2.1 3.1-.7 1.3-1.3 2.5-1.6 3.5s-.5 1.9-.4 2.8c.1.8.4 1.6 1 2.2.5.7 1.3 1.3 2.3 1.9.4.3.9.5 1.2.6s.7.3 1 .4l.9.3 2.8-5-3.5-2 1.7-3 6.8 3.8-5.6 9.9c-.7 0-1.4-.2-2.1-.3-.6-.1-1.4-.3-2.2-.6-.8-.3-1.7-.7-2.5-1.1-1.4-.8-2.6-1.7-3.5-2.6s-1.5-2-1.9-3.2c-.3-1.2-.3-2.6 0-4.1s1.3-3.7 2.4-5.7zm26.6 3.4 6.5 5.2c.5.4.9.8 1.3 1.2.4.4.7.9 1 1.3.3.5.5 1 .6 1.5.1.5.1 1.1 0 1.7-.1.6-.3 1.2-.6 1.9s-.8 1.4-1.4 2.2c-.4.5-.8.9-1.2 1.3-.4.3-.8.6-1.2.8-.4.2-.8.3-1.1.4-.4.1-.7.1-1 .2-.8 0-1.5-.1-2.2-.4l-2 10-3.3-2.7 1.9-9-2.9-2.3-5.1 6.4-2.9-2.3 13.6-17.4zm-.1 13.4c1.5 1.2 3 .9 4.6-1 .4-.5.7-1 .8-1.4.2-.4.2-.8.2-1.2 0-.4-.2-.7-.4-1.1-.2-.3-.5-.6-.9-.9l-3.4-2.8-4.4 5.5 3.5 2.9zm20.5 4.7 3.3 3.7-11.6 20.3-2.8-3.1 3.2-5.4-5.1-5.6-5.7 2.7-2.7-3 21.4-9.6zM248 64l5.1-8.4-8.8 4.3L248 64zm16.9 6.4-3.7-5.5 2.9-1.9 9.5 14.2-2.9 1.9-3.7-5.6-15.6 10.4-2.1-3.1 15.6-10.4zm17.1 71.3c2.1 0 3.9.3 5.4.8s2.6 1.2 3.5 2c.9.9 1.5 1.9 1.9 3.1.4 1.2.5 2.6.5 4.1 0 1-.1 1.9-.2 2.7-.1.8-.2 1.5-.4 2-.2.7-.3 1.2-.5 1.8h-2.8c.1-.6.1-1.2.2-1.8 0-.5.1-1.2.1-1.9s.1-1.4.1-2.2c0-1.3-.1-2.4-.4-3.2-.3-.9-.7-1.5-1.3-2s-1.4-.9-2.4-1.1c-1-.2-2.2-.3-3.7-.4-1.5 0-2.8.1-3.8.3-1.1.2-1.9.5-2.6 1-.7.5-1.2 1.1-1.5 1.9-.3.8-.5 1.8-.5 3v1.4c0 .4.1.8.1 1.1 0 .3.1.6.2.9l5.7.1.1-4.1 3.4.1-.1 7.8-11.4-.2c-.3-.6-.5-1.3-.7-2-.2-.6-.4-1.4-.5-2.2-.1-.8-.2-1.8-.2-2.8 0-1.6.2-3 .6-4.3s1-2.3 2-3.2c.9-.9 2.1-1.5 3.7-1.9 1.2-.7 3.2-.9 5.5-.8zm9.9 24.8-1.4 8.2c-.1.6-.2 1.1-.4 1.7s-.4 1-.7 1.5-.6.9-1 1.2c-.4.4-.9.6-1.5.8s-1.2.3-2 .4c-.8 0-1.6 0-2.6-.2-.7-.1-1.2-.3-1.7-.5s-.9-.4-1.3-.7-.7-.5-.9-.8c-.3-.3-.5-.6-.6-.8-.4-.6-.6-1.3-.7-2.1l-9.7 3.1.7-4.2 8.8-2.7.6-3.6-8-1.4.6-3.7 21.8 3.8zm-11.8 6.3c-.3 1.9.7 3.1 3.1 3.5.6.1 1.2.1 1.6.1.5-.1.8-.2 1.2-.4.3-.2.6-.5.7-.8.2-.3.3-.7.4-1.2l.7-4.3-7-1.2-.7 4.3zm5.8 20.3-1.6 4.7-23.4-.3 1.3-3.9 6.3.2 2.5-7.2-5.1-3.7 1.3-3.9 18.7 14.1zm-13.9.8 9.8.5v-.1l-8-5.6-1.8 5.2zm2.5 17.8 3.1-5.9 3.1 1.6-7.9 15.2-3.1-1.6 3.1-6-16.7-8.7 1.7-3.3 16.7 8.7zm-47.2 44.7c1.1 1.8 1.9 3.4 2.3 4.9s.4 2.8.2 4c-.3 1.2-.8 2.3-1.6 3.3s-1.9 1.8-3.1 2.6c-.9.5-1.6 1-2.4 1.3-.7.3-1.4.6-1.9.8-.6.2-1.2.4-1.7.5l-1.5-2.4c.5-.2 1-.5 1.6-.8.5-.3 1-.6 1.7-.9.6-.3 1.2-.7 1.9-1.1 1.1-.7 1.9-1.4 2.5-2.1.6-.7.9-1.4 1-2.2.1-.8 0-1.7-.4-2.6s-.9-2.1-1.7-3.3c-.8-1.3-1.6-2.3-2.3-3.1-.7-.8-1.5-1.3-2.3-1.6-.8-.3-1.6-.4-2.4-.2-.8.2-1.8.5-2.8 1.2-.4.3-.8.5-1.2.8-.3.2-.6.5-.8.7-.3.2-.5.4-.7.6l3 4.8 3.4-2.2 1.8 2.9-6.6 4.1-6-9.7c.4-.6.8-1.1 1.3-1.7.4-.5 1-1 1.6-1.6s1.4-1.1 2.2-1.7c1.4-.9 2.7-1.5 3.9-1.8s2.5-.4 3.7-.1c1.2.3 2.4 1 3.6 2 1.3 1.1 2.5 2.6 3.7 4.6zm-15.6 21.8-7.6 3.2c-.5.2-1.1.4-1.6.6-.6.1-1.1.2-1.6.2s-1.1-.1-1.6-.2c-.5-.2-1-.4-1.5-.8s-1-.9-1.4-1.5c-.4-.6-.8-1.4-1.2-2.3-.3-.6-.4-1.2-.5-1.7-.1-.5-.1-1-.1-1.5 0-.4.1-.8.2-1.2s.2-.7.4-1c.3-.7.8-1.2 1.4-1.7l-7.8-6.5 3.9-1.6 7 5.9 3.4-1.4-3.2-7.5 3.5-1.4 8.3 20.4zm-11.7-6.6c-1.8.8-2.2 2.2-1.3 4.5.2.6.5 1.1.8 1.4.3.4.6.6 1 .8s.7.2 1.1.2c.4 0 .8-.1 1.2-.3l4.1-1.7-2.7-6.5-4.2 1.6zm-14 15.8-4.8 1.2-12.3-19.9 4-1 3.2 5.4 7.4-1.8.3-6.3 4-1-1.8 23.4zm-8.1-11.3 4.9 8.5h.1l.5-9.8-5.5 1.3zm-13.7 11.7 6.6-.6.3 3.4-17 1.5-.3-3.4 6.7-.6-1.6-18.7 3.7-.3 1.6 18.7zm-70.7-19.1c-1 1.9-2.1 3.3-3.2 4.4-1.1 1-2.3 1.7-3.4 2.1-1.2.4-2.4.4-3.6.2-1.2-.3-2.5-.7-3.8-1.5-.9-.5-1.6-1-2.3-1.5-.6-.5-1.2-.9-1.6-1.3-.5-.4-.9-.9-1.3-1.3l1.4-2.5c.5.3 1 .7 1.5 1 .5.3 1 .6 1.6 1 .6.4 1.2.7 1.9 1.1 1.1.6 2.1 1 3 1.2.9.2 1.7.1 2.4-.2s1.4-.8 2.1-1.6c.7-.8 1.4-1.8 2.1-3.1.7-1.3 1.2-2.5 1.6-3.5s.4-2 .3-2.8c-.1-.8-.4-1.6-1-2.2-.5-.7-1.3-1.3-2.4-1.9-.4-.2-.9-.5-1.2-.6-.4-.2-.7-.3-1-.4l-.9-.3-2.8 5 3.5 2-1.7 3-6.8-3.8 5.5-10c.7 0 1.4.1 2.1.3.6.1 1.4.3 2.2.6s1.7.7 2.5 1.1c1.4.8 2.6 1.6 3.5 2.6.9.9 1.5 2 1.9 3.2.3 1.2.3 2.6 0 4.1-.2 1.8-1 3.6-2.1 5.6zm-26.6-3.2-6.5-5.1c-.5-.4-.9-.8-1.3-1.2s-.7-.9-1-1.3c-.3-.5-.5-1-.6-1.5-.1-.5-.1-1.1 0-1.7s.3-1.2.6-1.9.8-1.4 1.4-2.2c.4-.5.8-1 1.2-1.3.4-.3.8-.6 1.2-.8s.8-.4 1.1-.4c.4-.1.7-.1 1-.2.8 0 1.5.1 2.2.4l1.9-10 3.3 2.7-1.8 9 2.9 2.3 5.1-6.4 2.9 2.3-13.6 17.3zm.1-13.4c-1.5-1.2-3-.9-4.6 1-.4.5-.7 1-.8 1.4-.2.4-.2.8-.2 1.2 0 .4.2.7.4 1.1.2.3.5.6.9.9l3.5 2.7 4.4-5.5-3.6-2.8zm-20.6-4.6-3.3-3.7 11.5-20.4 2.8 3-3.2 5.5 5.1 5.6 5.7-2.8 2.8 3-21.4 9.8zm6-12.6-5.1 8.4 8.8-4.3-3.7-4.1zm-16.9-6.3 3.7 5.5-2.9 1.9-9.6-14.2 2.9-1.9 3.8 5.6L49 215l2.1 3.1-15.6 10.5zM18 157.4c-2.1 0-3.9-.3-5.4-.8-1.4-.5-2.6-1.2-3.5-2-.9-.9-1.5-1.9-1.9-3.1-.4-1.2-.5-2.6-.5-4.1 0-1 .1-1.9.2-2.7.1-.8.2-1.5.4-2 .2-.7.3-1.2.5-1.8h2.8c-.1.6-.1 1.2-.2 1.8-.1.6-.1 1.2-.1 1.9s-.1 1.4-.1 2.2c0 1.3.1 2.4.4 3.2.3.9.7 1.5 1.3 2 .6.5 1.4.9 2.4 1.1 1 .2 2.2.3 3.7.4 1.5 0 2.8-.1 3.8-.3 1.1-.2 1.9-.5 2.6-1 .7-.5 1.2-1.1 1.5-1.9.3-.8.5-1.8.5-3v-1.4c0-.4-.1-.8-.1-1.1 0-.3-.1-.6-.2-.9l-5.7-.1-.1 4.1-3.4-.1.1-7.8 11.4.2c.3.6.5 1.3.7 2 .2.6.4 1.4.5 2.2.1.8.2 1.8.2 2.8 0 1.6-.2 3-.6 4.3-.4 1.3-1 2.3-2 3.2-.9.9-2.1 1.5-3.7 1.9-1.2.6-3.2.8-5.5.8zM8 132.6l1.4-8.2c.1-.6.2-1.1.4-1.7s.4-1.1.7-1.5c.3-.5.6-.9 1-1.2.4-.4.9-.6 1.5-.9.6-.2 1.2-.3 2-.4s1.6 0 2.6.2c.7.1 1.2.3 1.7.5s.9.4 1.3.7c.4.2.7.5.9.8s.5.6.7.8c.4.6.6 1.3.7 2.1l9.7-3.1-.7 4.2-8.7 2.8-.6 3.6 8.1 1.3-.6 3.7L8 132.6zm11.8-6.4c.3-1.9-.7-3.1-3.1-3.5-.6-.1-1.2-.1-1.6-.1-.5.1-.8.2-1.2.4s-.6.5-.7.8c-.2.3-.3.7-.4 1.2l-.7 4.4 7 1.2.7-4.4zM13.9 106l1.6-4.7 23.4.2-1.3 3.9-6.3-.2-2.4 7.2L34 116l-1.3 3.9L13.9 106zm13.8-.8-9.8-.4v.1l8 5.6 1.8-5.3zm-2.6-17.8-3 5.9-3.1-1.6 7.8-15.2 3.1 1.6-3.1 6 16.7 8.6-1.7 3.3-16.7-8.6z"/><circle class="st1" cx="150" cy="150" r="112.5"/><path d="M47.3 159.8c0-62.3 50.2-112.5 112.5-112.5 28.6 0 54.8 10.8 74.5 28.1-20.6-23.4-50.6-38-84.4-38C87.7 37.5 37.5 87.7 37.5 150c0 33.8 14.5 63.8 38 84.4-17.8-20.2-28.2-46-28.2-74.6z" style="opacity:.2;fill:#fff;enable-background:new"/><path d="M224.5 65.6c17.8 19.7 28.1 45.9 28.1 74.5 0 62.3-50.2 112.5-112.5 112.5-28.6 0-54.8-10.8-74.5-28.1 20.6 23.4 50.6 38 84.4 38 62.3 0 112.5-50.2 112.5-112.5 0-33.8-14.5-63.8-38-84.4z" style="opacity:.1;fill:#231f20;enable-background:new"/><path class="st0" d="M100.5 126.8zm49.8-25.2L173.2 90 150 78.7l-22.6 11 22.9 11.9zm41.4-2.7-23.1 12 30.9 15.8v76.7l24.8-11.9v-76.8l-32.6-15.8zm-84.5.6-31.5 15.3v76.8l24.8 12v-76.7h.1l30.3-15.5-23.7-11.9z"/><path class="st0" d="m150 120.6-29.7 15.5v76.8l29.7 14.4 29.7-14.4v-76.8L150 120.6zm7-15.7h-.4s-4.9-.3-6.8 6c-1.7 5.6-5.6 5.3-5.8 5.3h-.2c-2.8-.1-4.9-2.4-4.9-5.2 0-2.8 2.3-5.2 5.2-5.2 1.8 0 3.4.9 4.4 2.4l.8-.5c-1.1-1.8-3.1-2.8-5.2-2.8-3.4 0-6.1 2.8-6.1 6.1s2.6 6 5.9 6.1h.4c.9 0 4.9-.3 6.6-6 1.7-5.6 5.6-5.3 5.8-5.3h.4c2.7.2 4.8 2.5 4.8 5.2 0 2.8-2.3 5.2-5.2 5.2-1.8 0-3.4-.9-4.4-2.4l-.8.5c1.1 1.8 3.1 2.8 5.2 2.8 3.4 0 6.1-2.8 6.1-6.1-.1-3.1-2.5-5.8-5.8-6.1z"/><path class="st5" d="M215.2 58.6 58.6 215.2c-1.4-2.3-3.3-4.7-4.7-7L208.6 53.4c2.3 1.9 4.2 3.3 6.6 5.2zm30.9 33.3L91.4 246.6c-7.5-4.7-14.1-9.8-20.6-15.9l158.9-159c6.5 5.6 12.2 12.7 16.4 20.2z" style="opacity:.3"/><path class="st5" d="m202.2 55.6-18.7-6.1 18.7-6.6 6.6-19.2 6.1 19.2 19.2 6.6-19.2 6.1-6.1 19.2zm28.2 22.9-10.8-3.7 10.8-3.8 3.7-10.8 3.8 10.8 10.7 3.8-10.7 3.7-3.8 10.8z"/></svg>