<svg fill="#fff" xmlns="http://www.w3.org/2000/svg" viewBox="0 0 300 300" style="enable-background:new 0 0 300 300" xml:space="preserve"><path d="M234.4 121.9V84.4C234.4 37.8 196.6 0 150 0S65.6 37.8 65.6 84.4v37.5c-15.5 0-28.1 12.6-28.1 28.1v65.7c0 46.6 37.8 84.4 84.4 84.4h56.3c46.6 0 84.4-37.8 84.4-84.4V150c-.1-15.5-12.7-28.1-28.2-28.1zm-150-37.5c0-36.2 29.4-65.6 65.6-65.6s65.6 29.4 65.6 65.6v37.5h-18.8V84.4c0-25.9-21-46.9-46.9-46.9S103 58.5 103 84.4v37.5H84.4V84.4zm103.1 0v37.5h-75V84.4c0-20.7 16.8-37.5 37.5-37.5s37.5 16.8 37.5 37.5zm56.3 93.7v37.6c0 36.2-29.4 65.6-65.6 65.6h-56.3c-36.2 0-65.6-29.4-65.6-65.6V150c0-5.2 4.2-9.4 9.4-9.4h168.9c5.2 0 9.4 4.2 9.4 9.4v28.1z"/><path d="M150 178.1c-10.4 0-18.8 8.4-18.8 18.8 0 5.7 3.1 16.5 6.3 25.1 2.6 7 5.8 12.4 12.5 12.4 7.3 0 9.9-5.4 12.5-12.3 3.2-8.6 6.2-19.4 6.2-25.1.1-10.5-8.3-18.9-18.7-18.9z"/></svg>