<svg fill="#ffffff" xmlns="http://www.w3.org/2000/svg" viewBox="0 0 300 300" style="enable-background:new 0 0 300 300" xml:space="preserve"><path d="M295.35 74.7c-2.52-3.36-6.06-5.94-10.63-7.75.24 4.2-.06 7.63-.9 10.27l-54.04 177.8c-.96 3.12-3.06 5.61-6.31 7.48-3.24 1.86-6.61 2.79-10.09 2.79H47.11c-14.41 0-23.06-4.2-25.94-12.61-1.2-3.24-1.14-5.82.18-7.75 1.32-1.8 3.6-2.7 6.85-2.7h156.55c11.17 0 18.89-2.07 23.15-6.21 4.26-4.14 8.56-13.36 12.88-27.65l49.36-163.21c2.64-8.89 1.56-16.69-3.24-23.42-4.8-6.73-11.65-10.09-20.54-10.09h-137.1c-1.56 0-4.62.54-9.19 1.62l.18-.54c-3.36-.72-6.21-1.05-8.56-.99s-4.5.75-6.49 2.07-3.57 2.73-4.77 4.23c-1.2 1.5-2.37 3.42-3.51 5.76-1.14 2.34-2.1 4.5-2.88 6.49-.78 1.98-1.68 4.08-2.7 6.31-1.02 2.22-2.01 4.05-2.97 5.49-.72.96-1.74 2.22-3.06 3.78-1.32 1.56-2.4 2.94-3.24 4.14-.84 1.2-1.38 2.28-1.62 3.24-.24 1.08-.12 2.67.36 4.77.48 2.1.66 3.63.54 4.59-.48 4.56-2.13 10.36-4.95 17.38-2.82 7.03-5.37 12.1-7.66 15.22-.48.6-1.8 1.95-3.96 4.05-2.16 2.1-3.48 3.93-3.96 5.49-.48.6-.51 2.28-.09 5.04.42 2.76.57 4.68.45 5.76-.48 4.08-1.98 9.49-4.5 16.21-2.52 6.73-5.04 12.25-7.57 16.57-.36.72-1.38 2.1-3.06 4.14-1.68 2.04-2.7 3.72-3.06 5.04-.24.96-.21 2.64.09 5.04s.27 4.2-.09 5.4c-.96 4.56-2.76 10.06-5.4 16.48-2.64 6.43-5.34 11.92-8.11 16.48-.72 1.2-1.71 2.61-2.97 4.23s-2.25 3.03-2.97 4.23-1.2 2.46-1.44 3.78c-.12.72.06 1.89.54 3.51.48 1.62.66 2.91.54 3.87-.12 1.68-.36 3.9-.72 6.67-.36 2.76-.54 4.38-.54 4.86-2.64 7.21-2.52 14.83.36 22.88 3.36 9.37 9.34 17.26 17.92 23.69 8.59 6.43 17.5 9.64 26.75 9.64h166.27c7.81 0 15.16-2.61 22.07-7.84 6.91-5.22 11.5-11.68 13.78-19.37l49.54-163.21c2.63-8.56 1.54-16.3-3.26-23.15zM129.6 56.31c11.01-4.23 22.21-6.33 33.6-6.3 14.7.04 25.19 3.22 31.46 9.53 6.27 6.31 7.73 15.19 4.39 26.62-2.31 7.89-6.5 15.06-12.57 21.51-6.07 6.45-14.04 12.19-23.88 17.21-5.7 2.97-10.27 6.21-13.71 9.72-3.44 3.51-5.77 7.36-7 11.55l-2.55 8.74-22.17-.07 2.99-10.23c2.06-7.03 5.41-13.23 10.07-18.58 4.66-5.35 10.62-9.87 17.88-13.54 7.15-3.53 12.86-7.41 17.15-11.63 4.29-4.22 7.15-8.78 8.58-13.68 1.56-5.33.88-9.47-2.03-12.43-2.91-2.96-7.83-4.45-14.77-4.47-7.09-.02-14.55 1.63-22.39 4.94a81.609 81.609 0 0 0-21.43 13.27l-11.15-15.29c7.35-7.01 16.52-12.64 27.53-16.87zm-27.86 133.45c1.29-4.4 4.02-8.13 8.19-11.17 4.17-3.04 8.56-4.56 13.16-4.55 4.67.01 8.19 1.55 10.54 4.62 2.35 3.07 2.88 6.8 1.59 11.2-1.27 4.33-3.97 8.04-8.12 11.12-4.15 3.08-8.56 4.61-13.23 4.6-4.6-.01-8.09-1.57-10.47-4.67-2.37-3.1-2.93-6.82-1.66-11.15z"/></svg>