<svg xmlns="http://www.w3.org/2000/svg" viewBox="0 0 299.7 273.1" style="enable-background:new 0 0 299.7 273.1" xml:space="preserve"><style>.st1{fill:#fff}</style><path d="M252.3 162.7c-14.5 0-27.5 6.4-36.3 16.6L192.6 163c2.2-5.5 3.4-11.5 3.4-17.8 0-10.4-3.3-20-8.9-27.8l17.2-23.9c4.8 1.6 9.9 2.5 15.2 2.5 26.5 0 48-21.5 48-48S246 0 219.5 0s-48 21.5-48 48c0 14.7 6.6 27.9 17.1 36.7L174 104.9c-7.5-4.8-16.4-7.7-26-7.7-12.2 0-23.3 4.6-31.8 12l-27.5-24c4.7-7.4 7.5-16.3 7.5-25.7 0-26.5-21.5-48-48-48S0 33 0 59.5s21.5 48 48 48c10.6 0 20.3-3.4 28.2-9.2l28.5 24.9c-3.3 6.5-5.2 13.9-5.2 21.8 0 9.4 2.7 18.2 7.4 25.6l-17.1 16.1c-8-6-18-9.6-28.8-9.6-26.5 0-48 21.5-48 48s21.5 48 48 48 48-21.5 48-48c0-9.2-2.6-17.9-7.1-25.2l17.3-16.2c7.9 5.8 17.7 9.2 28.3 9.2 13.8 0 26.2-5.8 34.9-15.1l24 16.8c-1.7 5-2.7 10.3-2.7 15.9 0 26.5 21.5 48 48 48s48-21.5 48-48-20.9-47.8-47.4-47.8z" style="opacity:.23;fill:#b5ff6b;enable-background:new"/><path class="st1" d="M286.6 196.9c0-.6-.9-5.2-2.9-7.3-2.6-2.9-5.5-3.2-7-3.2h-.3c-9-.6-22.4-.6-22.7-.6 0 0-13.7 0-22.7.6h-.3c-1.5 0-4.4.3-7 3.2-2 2.3-2.9 7-2.9 7.6 0 .3-.6 5.5-.6 11v4.9c0 5.5.6 10.8.6 11 0 .6.9 5.2 2.9 7.3 2.3 2.6 5.2 2.9 7 3.2h.9c5.2.6 21.2.6 21.8.6 0 0 13.7 0 22.7-.6h.3c1.5-.3 4.4-.6 7-3.2 2-2.3 2.9-7 2.9-7.6 0-.3.6-5.5.6-11v-4.9c.2-5.2-.3-10.8-.3-11zM265 211.1l-17.4 9.3c-.3 0-.3.3-.6.3s-.6 0-.6-.3c-.3-.3-.6-.6-.6-1.2v-18.9c0-.6.3-.9.6-1.2.3-.3.9-.3 1.5 0l17.4 9.3c.6.3.9.6.9 1.2s-.6 1.2-1.2 1.5z"/><path id="pic_2_" class="st1" d="M249.4 32.5c0-5.5-4.5-10-10-10h-40.2c-5.5 0-10 4.5-10 10v30.1c0 5.5 4.5 10 10 10h40.2c5.5 0 10-4.5 10-10V32.5zm-45.2 0c2.8 0 5 2.3 5 5s-2.3 5-5 5-5-2.3-5-5 2.2-5 5-5zm40.2 30.1c0 2.8-2.3 5-5 5h-39.2c-2.3 0-3.3-2.8-1.8-4.3l9-9c1-1 2.5-1 3.5 0l1.5 1.5c1 1 2.5 1 3.5 0l16.6-16.6c1-1 2.5-1 3.5 0l7.5 7.5c.5.5.8 1 .8 1.8.1.1.1 14.1.1 14.1z"/><path class="st1" d="M85.6 200c0-1.1-.5-2.2-1.4-2.9-.9-.7-2-.9-3.1-.7L47.3 205c-1.6.4-2.8 1.9-2.8 3.5v25.4c-1.1-.4-2.2-.6-3.4-.6-5.9 0-10.7 4.8-10.7 10.7s4.8 10.7 10.7 10.7c5.6 0 10.2-4.4 10.6-10 0-.2.1-.5.1-.7v-32.6l26.5-6.7v19.5c-1.1-.4-2.2-.6-3.4-.6-5.9 0-10.7 4.8-10.7 10.7S69 245 74.9 245c5.6 0 10.2-4.4 10.6-10 0-.2.1-.5.1-.7V200zM74.5 75.4c.7 0 1.1.2 1.3.6.2.4.1.8-.3 1.4l-3.9 5c-.4.5-.9.8-1.5.8s-1.1-.3-1.5-.8l-3.9-5c-.4-.5-.5-1-.3-1.4s.6-.6 1.3-.6h2.4V43.6h-2.5c-.7 0-1.1-.2-1.3-.6s-.1-.8.3-1.4l3.9-5c.4-.5.9-.8 1.5-.8s1.1.3 1.5.8l3.9 5c.4.5.5 1 .3 1.4s-.6.6-1.3.6h-2.5v31.8h2.6zM22.8 35.7l1.7.8c.2.1 2.4.2 6.5.2.9 0 2.3 0 4.1-.1 1.8 0 3.2-.1 4.1-.1h17.1c.1 0 .3 0 .5-.1s.4-.1.5-.3l.5-.5h2.1c.1 2.4.1 5.9.1 10.5 0 1.7-.1 2.8-.2 3.4-.8.3-1.5.5-2.1.6-.5-.9-1.1-2.2-1.7-4-.1-.2-.2-.7-.3-1.5-.2-.8-.3-1.6-.4-2.3-.1-.7-.2-1.1-.2-1.1-.1-.2-.2-.3-.4-.4-.1-.1-.3-.2-.5-.2s-.3-.1-.4-.1h-5.5c-.5 0-1.2 0-2 .1-.8 0-1.5.1-2.2.2-.2 1.7-.3 3.1-.2 4.2 0 1.9 0 6 .1 12 0 6.1.1 10.8.1 14.1 0 .3 0 1.1-.1 2.2s-.1 2.1 0 2.8c.1.7.2 1.5.4 2.1.8.4 2.1.9 3.8 1.3s3 .8 3.7 1.2c.1.8.2 1.3.2 1.6s0 .6-.1.9h-1c-1.6 0-3.8 0-6.8-.2-2.9-.2-5.1-.3-6.4-.3-1 0-2.6.1-4.7.3s-3.7.3-4.7.3c-.1-1.1-.1-1.6-.1-1.6v-.3c.4-.6 1-1 1.9-1.3s1.9-.6 3.1-.9c1.2-.3 1.9-.5 2.4-.8.4-.9.6-4.9.6-11.9 0-2.1 0-5.2-.1-9.4-.2-4.2-.2-7.3-.2-9.4V42c0-.3 0-.5-.1-.7s-.1-.4-.2-.4c-.2-.2-1.9-.4-5-.4-.7 0-1.6.1-2.9.4-1.2.2-2.1.5-2.5.8s-.7 1-1.1 2.2c-.3 1.2-.6 2.4-1 3.4-.3 1.1-.8 1.6-1.3 1.7-.9-.5-1.4-1-1.7-1.4V35.7h2.6zm104.9 98.5zm20.4-10.4 9.4-4.7-9.5-4.7-9.3 4.5zm17-1.1-9.5 5 12.7 6.4v31.5l10.2-4.9v-31.5zm-34.7.3-12.9 6.3v31.5l10.2 4.9v-31.5l12.5-6.4-9.8-4.8z"/><path class="st1" d="m147.9 131.6-12.1 6.4v31.5l12.2 5.9 12.2-5.9V138zm3-6.4h-.2s-2-.1-2.8 2.5c-.7 2.3-2.3 2.2-2.4 2.2h-.1c-1.1-.1-2-1-2-2.1 0-1.2 1-2.1 2.1-2.1.7 0 1.4.4 1.8 1l.3-.2c-.5-.7-1.3-1.2-2.1-1.2-1.4 0-2.5 1.1-2.5 2.5s1.1 2.5 2.4 2.5h.2c.4 0 2-.1 2.7-2.5.7-2.3 2.3-2.2 2.4-2.2h.2c1.1.1 2 1 2 2.1 0 1.2-1 2.1-2.1 2.1-.7 0-1.4-.4-1.8-1l-.3.2c.5.7 1.3 1.2 2.1 1.2 1.4 0 2.5-1.1 2.5-2.5-.1-1.3-1.1-2.4-2.4-2.5z"/></svg>