<svg xmlns="http://www.w3.org/2000/svg" viewBox="0 0 300 300" style="enable-background:new 0 0 300 300" xml:space="preserve"><style>.st1{fill:#525c6b}.st2{fill:#fff}.st3{fill:#7a8e9b}.st5{fill:#c2c2c2}</style><path style="fill:#c6c6c6" d="M0 0h300v300H0z"/><path class="st1" d="M0 0h300v41.9H0z"/><circle class="st2" cx="272.1" cy="20.8" r="6.4"/><circle class="st2" cx="241.6" cy="20.8" r="6.4"/><circle class="st2" cx="211.2" cy="20.8" r="6.4"/><path class="st2" d="M21 62.2h257.9v218.2H21z"/><path class="st3" d="M41.1 83.4H68v10.2H41.1zm43.3 0h45.8v10.2H84.4zm-43.3 27h89.1v10.2H41.1zm0 26.9h60.3v10.2H41.1z"/><path d="M267.5 244.3c-7.3 1-10.4 6.6-16.4 6.6-6.7 0-10.6-6.6-16.8-7-11.2-.1-17.3 9.8-17.3 9.8l16.8 26.7H279v-32.5c-3-2.6-6.7-3.5-11.5-3.6z" style="fill:#2ba0bf"/><path class="st3" d="M125.3 240.7s33.5-54 46.9-54c16.2 0 72.4 93.8 72.4 93.8H125.3v-39.8z"/><path class="st5" d="M159.9 221.9c10.9-.9 14.2-10.6 24.9-10.9 7.6-.2 16.1 4.9 17.6 5.5-12.3-16.6-24-29.8-30.1-29.8-6.8 0-18.8 14-29 27.7.5.7 3.4 7.5 16.6 7.5z"/><path d="M261.4 95.6c0-.7-1.1-6.4-3.5-8.9-3.2-3.5-6.7-3.9-8.5-3.9h-.4c-11-.7-27.3-.7-27.7-.7 0 0-16.7 0-27.7.7h-.4c-1.8 0-5.3.4-8.5 3.9-2.5 2.8-3.5 8.5-3.5 9.2 0 .4-.7 6.7-.7 13.5v6c0 6.7.7 13.1.7 13.5 0 .7 1.1 6.4 3.5 8.9 2.8 3.2 6.4 3.5 8.5 3.9h1.1c6.4.7 25.9.7 26.6.7 0 0 16.7 0 27.7-.7h.4c1.8-.4 5.3-.7 8.5-3.9 2.5-2.8 3.5-8.5 3.5-9.2 0-.4.7-6.7.7-13.5v-6c.4-6.4-.3-13.2-.3-13.5zm-26.3 17.3-21.3 11.4c-.4 0-.4.4-.7.4-.4 0-.7 0-.7-.4-.4-.4-.7-.7-.7-1.4V99.8c0-.7.4-1.1.7-1.4.4-.4 1.1-.4 1.8 0l21.3 11.4c.7.4 1.1.7 1.1 1.4s-.8 1.4-1.5 1.7z" style="fill:#f87670"/><path d="M208.1 111.4c0-1.5-.7-2.9-1.9-3.8-1.2-.9-2.7-1.3-4.2-.9l-45 11.4c-2.1.6-3.7 2.5-3.7 4.7v33.8c-1.4-.5-2.9-.8-4.5-.8-7.8 0-14.2 6.4-14.2 14.3s6.4 14.2 14.2 14.2c7.5 0 13.6-5.9 14.1-13.3.1-.3.1-.6.1-1v-43.5l35.3-9v26c-1.4-.5-2.9-.8-4.5-.8-7.8 0-14.2 6.4-14.2 14.2s6.4 14.3 14.2 14.3c7.5 0 13.6-5.9 14.1-13.3.1-.3.1-.6.1-1 .1.2.1-45.5.1-45.5z" style="fill:#ffbd66"/><path class="st1" d="M21 229.4s43-69.3 60.2-69.3c20.7 0 93 120.4 93 120.4H21v-51.1z"/><path class="st5" d="M65.4 205.3c14-1.1 18.2-13.6 31.9-14 9.8-.2 20.6 6.3 22.5 7C104 177.1 88.9 160 81.1 160c-8.7 0-24.1 18-37.1 35.6.8 1 4.5 9.7 21.4 9.7z"/></svg>