<svg style="enable-background:new 0 0 21 30" version="1.1" viewBox="0 0 21 30" xml:space="preserve" xmlns="http://www.w3.org/2000/svg"><style>.st0,.st1,.st2,.st3{fill-rule:evenodd;clip-rule:evenodd}.st1{fill:#fff}.st2{fill:#df7126}.st3{fill:#fbf236}</style><path class="st0" d="M13 29h1v1h-1zm1-1h1v1h-1z"/><path class="st1" d="M13 28h1v1h-1z"/><path class="st0" d="M12 28h1v1h-1zm7-1h1v1h-1zm-6 0h1v1h-1zm-6 0h1v1H7zm-6 0h1v1H1zm19-1h1v1h-1z"/><path class="st1" d="M19 26h1v1h-1z"/><path class="st0" d="M18 26h1v1h-1zm-5 0h1v1h-1zm-5 0h1v1H8z"/><path class="st1" d="M7 26h1v1H7z"/><path class="st0" d="M6 26h1v1H6zm-4 0h1v1H2z"/><path class="st1" d="M1 26h1v1H1z"/><path class="st0" d="M0 26h1v1H0zm19-1h1v1h-1zm-2 0h1v1h-1zm-4 0h1v1h-1zm-6 0h1v1H7zm-4 0h1v1H3zm-2 0h1v1H1zm15-1h1v1h-1zm-3 0h1v1h-1zm-6 0h1v1H7zm-3 0h1v1H4zm12-1h1v1h-1zm-3 0h1v1h-1zm-6 0h1v1H7zm-3 0h1v1H4zm13-1h1v1h-1zm-1 0h1v1h-1zm-1 0h1v1h-1zm-1 0h1v1h-1zm-1 0h1v1h-1zm-1 0h1v1h-1zm-1 0h1v1h-1zm-1 0h1v1h-1zm-1 0h1v1H9zm-1 0h1v1H8zm-1 0h1v1H7zm-1 0h1v1H6zm-1 0h1v1H5zm-1 0h1v1H4zm-1 0h1v1H3zm15-1h1v1h-1z"/><path class="st2" d="M17 21h1v1h-1z"/><path class="st0" d="M16 21h1v1h-1z"/><path class="st2" d="M15 21h1v1h-1zm-1 0h1v1h-1zm-1 0h1v1h-1zm-1 0h1v1h-1zm-1 0h1v1h-1zm-1 0h1v1h-1zm-1 0h1v1H9zm-1 0h1v1H8zm-1 0h1v1H7zm-1 0h1v1H6zm-1 0h1v1H5z"/><path class="st0" d="M4 21h1v1H4z"/><path class="st2" d="M3 21h1v1H3z"/><path class="st0" d="M2 21h1v1H2zm16-1h1v1h-1zm-1 0h1v1h-1zm-1 0h1v1h-1z"/><path class="st1" d="M15 20h1v1h-1zm-1 0h1v1h-1z"/><path class="st0" d="M13 20h1v1h-1zm-1 0h1v1h-1zm-1 0h1v1h-1zm-1 0h1v1h-1zm-1 0h1v1H9z"/><path class="st3" d="M8 20h1v1H8z"/><path class="st0" d="M7 20h1v1H7z"/><path class="st2" d="M6 20h1v1H6zm-1 0h1v1H5z"/><path class="st0" d="M4 20h1v1H4zm-1 0h1v1H3zm-1 0h1v1H2zm16-1h1v1h-1z"/><path class="st2" d="M17 19h1v1h-1z"/><path class="st3" d="M16 19h1v1h-1zm-1 0h1v1h-1z"/><path class="st1" d="M14 19h1v1h-1zm-1 0h1v1h-1z"/><path class="st3" d="M12 19h1v1h-1zm-1 0h1v1h-1zm-1 0h1v1h-1zm-1 0h1v1H9zm-1 0h1v1H8zm-1 0h1v1H7zm-1 0h1v1H6zm-1 0h1v1H5zm-1 0h1v1H4z"/><path class="st1" d="M3 19h1v1H3z"/><path class="st0" d="M2 19h1v1H2zm16-1h1v1h-1z"/><path class="st2" d="M17 18h1v1h-1z"/><path class="st3" d="M16 18h1v1h-1zm-1 0h1v1h-1zm-1 0h1v1h-1z"/><path class="st1" d="M13 18h1v1h-1zm-1 0h1v1h-1z"/><path class="st3" d="M11 18h1v1h-1zm-1 0h1v1h-1zm-1 0h1v1H9zm-1 0h1v1H8zm-1 0h1v1H7zm-1 0h1v1H6zm-1 0h1v1H5zm-1 0h1v1H4z"/><path class="st1" d="M3 18h1v1H3z"/><path class="st0" d="M2 18h1v1H2zm16-1h1v1h-1z"/><path class="st2" d="M17 17h1v1h-1z"/><path class="st3" d="M16 17h1v1h-1zm-1 0h1v1h-1z"/><path class="st0" d="M14 17h1v1h-1z"/><path class="st3" d="M13 17h1v1h-1z"/><path class="st1" d="M12 17h1v1h-1zm-1 0h1v1h-1z"/><path class="st3" d="M10 17h1v1h-1z"/><path class="st0" d="M9 17h1v1H9z"/><path class="st3" d="M8 17h1v1H8z"/><path class="st0" d="M7 17h1v1H7z"/><path class="st3" d="M6 17h1v1H6zm-1 0h1v1H5z"/><path class="st0" d="M4 17h1v1H4z"/><path class="st1" d="M3 17h1v1H3z"/><path class="st0" d="M2 17h1v1H2zm16-1h1v1h-1z"/><path class="st2" d="M17 16h1v1h-1z"/><path class="st3" d="M16 16h1v1h-1zm-1 0h1v1h-1z"/><path class="st0" d="M14 16h1v1h-1z"/><path class="st3" d="M13 16h1v1h-1zm-1 0h1v1h-1z"/><path class="st1" d="M11 16h1v1h-1zm-1 0h1v1h-1z"/><path class="st0" d="M9 16h1v1H9z"/><path class="st3" d="M8 16h1v1H8z"/><path class="st0" d="M7 16h1v1H7z"/><path class="st3" d="M6 16h1v1H6zm-1 0h1v1H5z"/><path class="st0" d="M4 16h1v1H4z"/><path class="st1" d="M3 16h1v1H3z"/><path class="st0" d="M2 16h1v1H2zm16-1h1v1h-1z"/><path class="st2" d="M17 15h1v1h-1z"/><path class="st1" d="M16 15h1v1h-1z"/><path class="st3" d="M15 15h1v1h-1z"/><path class="st0" d="M14 15h1v1h-1z"/><path class="st3" d="M13 15h1v1h-1zm-1 0h1v1h-1z"/><path class="st0" d="M11 15h1v1h-1zm-1 0h1v1h-1zm-1 0h1v1H9z"/><path class="st3" d="M8 15h1v1H8z"/><path class="st0" d="M7 15h1v1H7zm-1 0h1v1H6z"/><path class="st3" d="M5 15h1v1H5z"/><path class="st0" d="M4 15h1v1H4z"/><path class="st1" d="M3 15h1v1H3z"/><path class="st0" d="M2 15h1v1H2zm16-1h1v1h-1z"/><path class="st2" d="M17 14h1v1h-1z"/><path class="st3" d="M16 14h1v1h-1z"/><path class="st1" d="M15 14h1v1h-1z"/><path class="st0" d="M14 14h1v1h-1z"/><path class="st3" d="M13 14h1v1h-1zm-1 0h1v1h-1zm-1 0h1v1h-1zm-1 0h1v1h-1z"/><path class="st0" d="M9 14h1v1H9z"/><path class="st1" d="M8 14h1v1H8z"/><path class="st0" d="M7 14h1v1H7z"/><path class="st3" d="M6 14h1v1H6z"/><path class="st0" d="M5 14h1v1H5zm-1 0h1v1H4z"/><path class="st1" d="M3 14h1v1H3z"/><path class="st0" d="M2 14h1v1H2zm16-1h1v1h-1z"/><path class="st2" d="M17 13h1v1h-1z"/><path class="st3" d="M16 13h1v1h-1z"/><path class="st0" d="M15 13h1v1h-1zm-1 0h1v1h-1zm-1 0h1v1h-1z"/><path class="st3" d="M12 13h1v1h-1z"/><path class="st0" d="M11 13h1v1h-1zm-1 0h1v1h-1zm-1 0h1v1H9z"/><path class="st1" d="M8 13h1v1H8z"/><path class="st0" d="M7 13h1v1H7z"/><path class="st3" d="M6 13h1v1H6zm-1 0h1v1H5z"/><path class="st0" d="M4 13h1v1H4z"/><path class="st1" d="M3 13h1v1H3z"/><path class="st0" d="M2 13h1v1H2zm16-1h1v1h-1z"/><path class="st2" d="M17 12h1v1h-1z"/><path class="st3" d="M16 12h1v1h-1zm-1 0h1v1h-1zm-1 0h1v1h-1z"/><path class="st1" d="M13 12h1v1h-1z"/><path class="st3" d="M12 12h1v1h-1zm-1 0h1v1h-1zm-1 0h1v1h-1zm-1 0h1v1H9zm-1 0h1v1H8z"/><path class="st1" d="M7 12h1v1H7zm-1 0h1v1H6z"/><path class="st3" d="M5 12h1v1H5zm-1 0h1v1H4z"/><path class="st1" d="M3 12h1v1H3z"/><path class="st0" d="M2 12h1v1H2zm16-1h1v1h-1z"/><path class="st2" d="M17 11h1v1h-1z"/><path class="st3" d="M16 11h1v1h-1zm-1 0h1v1h-1zm-1 0h1v1h-1zm-1 0h1v1h-1z"/><path class="st1" d="M12 11h1v1h-1z"/><path class="st3" d="M11 11h1v1h-1zm-1 0h1v1h-1zm-1 0h1v1H9zm-1 0h1v1H8zm-1 0h1v1H7z"/><path class="st1" d="M6 11h1v1H6zm-1 0h1v1H5z"/><path class="st3" d="M4 11h1v1H4z"/><path class="st1" d="M3 11h1v1H3z"/><path class="st0" d="M2 11h1v1H2zm16-1h1v1h-1z"/><path class="st2" d="M17 10h1v1h-1z"/><path class="st3" d="M16 10h1v1h-1zm-1 0h1v1h-1z"/><path class="st0" d="M14 10h1v1h-1z"/><path class="st3" d="M13 10h1v1h-1zm-1 0h1v1h-1z"/><path class="st0" d="M11 10h1v1h-1zm-1 0h1v1h-1zm-1 0h1v1H9zm-1 0h1v1H8zm-1 0h1v1H7z"/><path class="st3" d="M6 10h1v1H6z"/><path class="st1" d="M5 10h1v1H5zm-1 0h1v1H4zm-1 0h1v1H3z"/><path class="st0" d="M2 10h1v1H2zm16-1h1v1h-1zm-1 0h1v1h-1zm-1 0h1v1h-1z"/><path class="st3" d="M15 9h1v1h-1zm-1 0h1v1h-1zm-1 0h1v1h-1zm-1 0h1v1h-1zm-1 0h1v1h-1z"/><path class="st1" d="M10 9h1v1h-1z"/><path class="st3" d="M9 9h1v1H9zM8 9h1v1H8zM7 9h1v1H7zM6 9h1v1H6zM5 9h1v1H5z"/><path class="st0" d="M4 9h1v1H4zM3 9h1v1H3zM2 9h1v1H2zm16-1h1v1h-1z"/><path class="st3" d="M17 8h1v1h-1z"/><path class="st0" d="M16 8h1v1h-1z"/><path class="st3" d="M15 8h1v1h-1z"/><path class="st1" d="M14 8h1v1h-1zm-1 0h1v1h-1zm-1 0h1v1h-1zm-1 0h1v1h-1zm-1 0h1v1h-1zM9 8h1v1H9zM8 8h1v1H8zM7 8h1v1H7zM6 8h1v1H6z"/><path class="st3" d="M5 8h1v1H5z"/><path class="st0" d="M4 8h1v1H4z"/><path class="st3" d="M3 8h1v1H3z"/><path class="st0" d="M2 8h1v1H2zm15-1h1v1h-1zm-1 0h1v1h-1zm-1 0h1v1h-1zm-1 0h1v1h-1zm-1 0h1v1h-1zm-1 0h1v1h-1zm-1 0h1v1h-1zm-1 0h1v1h-1zM9 7h1v1H9zM8 7h1v1H8zM7 7h1v1H7zM6 7h1v1H6zM5 7h1v1H5zM4 7h1v1H4zM3 7h1v1H3zm13-1h1v1h-1zm-3 0h1v1h-1zM7 6h1v1H7zM4 6h1v1H4zm12-1h1v1h-1zm-3 0h1v1h-1zM7 5h1v1H7zM4 5h1v1H4zm15-1h1v1h-1zm-2 0h1v1h-1zm-4 0h1v1h-1zM7 4h1v1H7zM3 4h1v1H3zM1 4h1v1H1zm19-1h1v1h-1z"/><path class="st1" d="M19 3h1v1h-1z"/><path class="st0" d="M18 3h1v1h-1zm-4 0h1v1h-1z"/><path class="st1" d="M13 3h1v1h-1z"/><path class="st0" d="M12 3h1v1h-1zM7 3h1v1H7zM2 3h1v1H2z"/><path class="st1" d="M1 3h1v1H1z"/><path class="st0" d="M0 3h1v1H0zm19-1h1v1h-1zm-6 0h1v1h-1zM7 2h1v1H7zM1 2h1v1H1zm7-1h1v1H8z"/><path class="st1" d="M7 1h1v1H7z"/><path class="st0" d="M6 1h1v1H6zm1-1h1v1H7z"/></svg>