<svg xmlns="http://www.w3.org/2000/svg" x="0" y="0" viewBox="0 0 300 300" style="enable-background:new 0 0 300 300" xml:space="preserve"><style>.st1{fill:#dc483e}</style><linearGradient id="SVGID_1_" gradientUnits="userSpaceOnUse" x1="150" y1="0" x2="150" y2="300"><stop offset="0" style="stop-color:#fff"/><stop offset=".79" style="stop-color:#cdcdcd"/><stop offset="1" style="stop-color:#727271"/></linearGradient><path d="M235.7 192.9v-150c0-23.7-19.2-42.9-42.9-42.9h-150C19.2 0 0 19.2 0 42.9v192.9C0 271.2 28.8 300 64.3 300h171.4c35.5 0 64.3-28.8 64.3-64.3v-42.9h-64.3zm-75 57.1H75c-5.9 0-10.7-4.8-10.7-10.7s4.8-10.7 10.7-10.7h85.7c5.9 0 10.7 4.8 10.7 10.7s-4.8 10.7-10.7 10.7zm0-64.3H75c-5.9 0-10.7-4.8-10.7-10.7s4.8-10.7 10.7-10.7h85.7c5.9 0 10.7 4.8 10.7 10.7s-4.8 10.7-10.7 10.7zm117.9 50c0 23.7-19.2 42.9-42.9 42.9v-64.3h42.9v21.4z" style="fill:url(#SVGID_1_)"/><path class="st1" d="M83.9 67zm34.2-17.3 15.7-8-15.9-7.7-15.5 7.5 15.7 8.2zm28.4-1.8-15.8 8.3L151.9 67v52.7l17-8.2V58.7l-22.4-10.8zm-58.1.4L66.8 58.7v52.7l17 8.2V67h.1l20.8-10.7-16.3-8z"/><path class="st1" d="M117.8 62.8 97.4 73.4v52.7l20.4 9.9 20.4-9.9V73.4l-20.4-10.6z"/></svg>