<svg xmlns="http://www.w3.org/2000/svg" viewBox="0 0 300 300" style="enable-background:new 0 0 300 300" xml:space="preserve"><path d="M132.4 176.5h-8.8v-17.6c0-19.5-15.8-35.3-35.3-35.3-6.2 0-12.3 1.6-17.6 4.7-16.9-9.7-38.5-4-48.2 12.9-3.1 5.4-4.7 11.5-4.7 17.6v17.6h-9c-4.9 0-8.8 4-8.8 8.8v79.4C0 284.2 15.8 300 35.3 300h70.6c19.5 0 35.3-15.8 35.3-35.3v-79.4c0-4.9-4-8.8-8.8-8.8zm-61.8 0H35.3v-17.6c0-9.7 7.9-17.6 17.6-17.6s17.6 7.9 17.6 17.6v17.6zm35.3 0H88.2v-17.6c0-6.2-1.6-12-4.4-17.1 9.5-2.4 19.1 3.3 21.5 12.8.4 1.4.5 2.9.5 4.3v17.6z" style="fill:#dc483e"/><path d="M247.1 158.8V35.3c0-19.5-15.8-35.3-35.3-35.3H88.2C68.7 0 52.9 15.8 52.9 35.3v70.6c6.2 0 12.1 1.1 17.6 3 27.6-9.7 57.8 4.7 67.6 32.3 2 5.7 3 11.6 3 17.7v1.5c10.6 3.7 17.7 13.7 17.6 25v61.8h88.2c29.2 0 52.9-23.7 52.9-52.9V159h-52.7zm-61.8-52.9h-70.6c-4.9 0-8.8-4-8.8-8.8s4-8.8 8.8-8.8h70.6c4.9 0 8.8 4 8.8 8.8s-3.9 8.8-8.8 8.8zm0-35.3h-70.6c-4.9 0-8.8-4-8.8-8.8s4-8.8 8.8-8.8h70.6c4.9 0 8.8 4 8.8 8.8s-3.9 8.8-8.8 8.8zm97.1 123.5c0 19.5-15.8 35.3-35.3 35.3v-52.9h35.3v17.6z" style="fill:#fff"/></svg>