<svg xmlns="http://www.w3.org/2000/svg" viewBox="0 0 300 300" style="enable-background:new 0 0 300 300" xml:space="preserve"><path d="M264.8 78.9v197.4c0 13.1-10.6 23.7-23.8 23.7H58.9c-13.1 0-23.8-10.6-23.8-23.7V23.7C35.2 10.6 45.8 0 58.9 0h126.7l79.2 78.9z" style="fill-rule:evenodd;clip-rule:evenodd;fill:#cb0606"/><path d="M264.8 74.5v9.8h-64.7c-13.4 0-19.6-10.9-19.6-24.3V0h9.8l74.5 74.5z" style="fill-rule:evenodd;clip-rule:evenodd;fill:#fb8d8d"/><path d="M211.4 159.6c-2-.7-4-1-5.9-1-2.2 0-3.6.4-4.4 1.3-.8.9-1.2 2.5-1.2 4.7v4.3h9.1v8.7h-9.1v35.8h-11v-35.8h-5.7V169h5.7v-4.3c0-5.5 1.4-9.5 4.1-12 2.7-2.5 6.9-3.7 12.4-3.7 2.6 0 5.3.4 8.2 1.1l-2.2 9.5zm-46 49.5c-2 1.7-4.2 3.1-6.5 4.1-2.3 1-4.8 1.5-7.7 1.5-5.6 0-9.9-2-12.9-6.1-3-4-4.5-9.8-4.5-17.1 0-7.5 1.6-13.4 4.9-17.6 3.3-4.2 7.9-6.3 13.8-6.3 2.1 0 4.3.4 6.5 1.3s4 2 5.5 3.3v-22h11v63.1h-10.1v-4.2zm-.8-27.8c-1.2-1-2.6-2-4.3-2.8-1.7-.8-3.5-1.2-5.3-1.2-2.9 0-5.3 1.3-7.1 3.8-1.8 2.5-2.7 6-2.7 10.3 0 4.3.7 7.6 2.2 10.1 1.5 2.4 3.7 3.6 6.8 3.6 1.8 0 3.7-.4 5.6-1.3s3.5-1.9 4.8-3.1v-19.4zm-47 30.6c-2.7 1.9-5.9 2.9-9.7 2.9-4.9 0-9.1-1.5-12.6-4.6v20.1h-11V169h10.1v4.4c2-1.8 4.2-3.1 6.4-4.1 2.3-1 4.8-1.5 7.8-1.5 5.6 0 9.9 2 12.9 5.9 2.9 4 4.4 9.7 4.4 17.3 0 4.8-.7 9-2.2 12.6-1.3 3.6-3.4 6.4-6.1 8.3zm-5.2-31c-1.5-2.4-3.7-3.6-6.7-3.6-1.8 0-3.6.4-5.5 1.2-1.9.8-3.5 1.9-4.9 3.1v19.5c1.2 1 2.6 2 4.3 2.8 1.7.8 3.5 1.2 5.3 1.2 3 0 5.4-1.3 7.1-3.8 1.7-2.6 2.6-6 2.6-10.2.1-4.4-.7-7.7-2.2-10.2z" style="fill-rule:evenodd;clip-rule:evenodd;fill:#fff"/></svg>