<svg viewBox="0 0 48 48" xmlns="http://www.w3.org/2000/svg"><defs><linearGradient gradientUnits="userSpaceOnUse" id="a" x1="24.66" x2="24.66" y1="11.87" y2="38.2"><stop offset="0" stop-color="#a9db3b"/><stop offset="1" stop-color="#92b93b"/></linearGradient></defs><g data-name="Layer 3"><path d="M37.32 8.33h-9.06a2.83 2.83 0 0 0-2 .84L9.84 25.56a2.88 2.88 0 0 0 0 4.05l9.22 9.22a2.86 2.86 0 0 0 4.05 0l16.37-16.38a2.85 2.85 0 0 0 .84-2.06l-.14-9.24a2.86 2.86 0 0 0-2.86-2.82ZM35 15.84a2 2 0 1 1 2-2.05 2 2 0 0 1-2 2.05Z" style="fill:url(#a)"/><path d="M25.19 17.24a1 1 0 1 0-2 .15l1 13.37a1 1 0 0 0 1.07.92 1 1 0 0 0 .93-1 .19.19 0 0 0 0-.08Zm5.13 2.94a3 3 0 1 0 3 3 3 3 0 0 0-3-3Zm0 4a1 1 0 1 1 1-1 1 1 0 0 1-1 1ZM19 21.49a3 3 0 1 0 3 3 3 3 0 0 0-3-3Zm0 4a1 1 0 1 1 1-1 1 1 0 0 1-1 1Z" style="fill:#fff"/></g></svg>