<svg height="128" viewBox="0 0 33.867 33.867" width="128" xmlns="http://www.w3.org/2000/svg"><path d="M-21.234 1.505c.504 1.502-1.99 3.323-1.995 4.9-.006 1.578 2.475 3.416 1.96 4.914-.515 1.499-3.651 1.57-4.626 2.844-.974 1.273-.096 4.153-1.434 5.076-1.338.923-3.92-.781-5.49-.3-1.57.483-2.631 3.307-4.28 3.301-1.65-.005-2.691-2.835-4.258-3.328-1.567-.492-4.16 1.196-5.492.264-1.331-.932-.433-3.806-1.399-5.086-.965-1.279-4.1-1.371-4.605-2.873-.504-1.502 1.989-3.323 1.995-4.9.006-1.578-2.475-3.415-1.96-4.914.515-1.499 3.651-1.57 4.626-2.844.974-1.273.096-4.153 1.434-5.076 1.338-.923 3.92.782 5.49.3 1.57-.483 2.631-3.307 4.28-3.301 1.65.005 2.69 2.835 4.258 3.328 1.567.492 4.16-1.196 5.492-.264 1.331.932.433 3.806 1.398 5.086.966 1.28 4.101 1.371 4.606 2.873z" style="fill:lime;fill-opacity:1;stroke-width:1.58822;stroke-linecap:square;stroke-dasharray:1.58822,6.35288;paint-order:markers fill stroke" transform="translate(53.977 10.572)"/><path d="M-39.526 2.128a1.984 1.984 0 0 1-1.984 1.985 1.984 1.984 0 0 1-1.985-1.985A1.984 1.984 0 0 1-41.51.144a1.984 1.984 0 0 1 1.984 1.984zm8.934 8.466a1.984 1.984 0 0 1-1.985 1.984 1.984 1.984 0 0 1-1.984-1.984 1.984 1.984 0 0 1 1.984-1.984 1.984 1.984 0 0 1 1.985 1.984z" style="fill:#000;fill-opacity:1;stroke-width:.780891;stroke-linecap:square;stroke-dasharray:.780891,3.12356;paint-order:markers fill stroke" transform="translate(53.977 10.572)"/><path d="M-42.666 10.114a1.323 1.323 0 1 0 1.87 1.87l9.377-9.377a1.323 1.323 0 0 0-1.87-1.87z" style="color:#000;font-style:normal;font-variant:normal;font-weight:400;font-stretch:normal;font-size:medium;line-height:normal;font-family:sans-serif;font-variant-ligatures:normal;font-variant-position:normal;font-variant-caps:normal;font-variant-numeric:normal;font-variant-alternates:normal;font-variant-east-asian:normal;font-feature-settings:normal;font-variation-settings:normal;text-indent:0;text-align:start;text-decoration:none;text-decoration-line:none;text-decoration-style:solid;text-decoration-color:#000;letter-spacing:normal;word-spacing:normal;text-transform:none;writing-mode:lr-tb;direction:ltr;text-orientation:mixed;dominant-baseline:auto;baseline-shift:baseline;text-anchor:start;white-space:normal;shape-padding:0;shape-margin:0;inline-size:0;clip-rule:nonzero;display:inline;overflow:visible;visibility:visible;isolation:auto;mix-blend-mode:normal;color-interpolation:sRGB;color-interpolation-filters:linearRGB;solid-color:#000;solid-opacity:1;vector-effect:none;fill:#000;fill-opacity:1;fill-rule:nonzero;stroke:none;stroke-width:2.64583;stroke-linecap:round;stroke-linejoin:round;stroke-miterlimit:4;stroke-dasharray:none;stroke-dashoffset:0;stroke-opacity:1;paint-order:markers fill stroke;color-rendering:auto;image-rendering:auto;shape-rendering:auto;text-rendering:auto;enable-background:accumulate;stop-color:#000" transform="translate(53.977 10.572)"/></svg>