<svg style="enable-background:new 0 0 32 32" viewBox="0 0 32 32" xml:space="preserve" xmlns="http://www.w3.org/2000/svg"><path d="M27.5 7.515h-4.401c.056.327.094.659.094 1v2.364a1 1 0 1 1-2 0V8.515c0-.345-.054-.677-.138-1H10.946a3.911 3.911 0 0 0-.138 1v2.364a1 1 0 0 1-2 0V8.515c0-.341.038-.673.094-1H4.5a1 1 0 0 0-1 1v17.822A3.668 3.668 0 0 0 7.163 30h17.674a3.668 3.668 0 0 0 3.663-3.663V8.515a1 1 0 0 0-1-1z" style="fill:#db463e"/><path d="M8.808 10.879a1 1 0 0 0 2 0V8.515c0-.345.054-.677.138-1C11.472 5.507 13.533 4 16 4s4.528 1.507 5.054 3.515c.085.323.138.655.138 1v2.364a1 1 0 1 0 2 0V8.515c0-.341-.038-.673-.094-1C22.565 4.397 19.59 2 16 2S9.435 4.397 8.901 7.515a5.903 5.903 0 0 0-.094 1v2.364z" style="fill:#ffffff"/></svg>