<svg fill="#1f93ff" xmlns="http://www.w3.org/2000/svg" viewBox="0 0 300 300"><circle cx="150" cy="150" r="31.5"/><path d="M82.4 262H21.5l14.7-14.7c1.2-1.2 1.8-2.7 1.8-4.4 0-3.1-2.6-6.3-6.3-6.3-1.7 0-3.1.6-4.4 1.8L2.1 263.7c-1 1-2.1 2.3-2.1 4.6s.9 3.4 2 4.6l25.3 25.3c1.2 1.2 2.7 1.8 4.4 1.8 3.8 0 6.3-3.2 6.3-6.3 0-1.6-.6-3.1-1.8-4.4l-14.6-14.6h60.8c3.5 0 6.3-2.8 6.3-6.3s-2.8-6.4-6.3-6.4zM211.3 31.6c0 3.5 2.8 6.3 6.3 6.3h60.8l-14.6 14.7c-1.2 1.2-1.8 2.7-1.8 4.4 0 3.1 2.6 6.3 6.3 6.3 1.7 0 3.1-.6 4.4-1.8L298 36.2c1.2-1.2 2-2.3 2-4.6s-1.1-3.6-2.1-4.6L272.7 1.8C271.5.6 270 0 268.3 0c-3.8 0-6.3 3.2-6.3 6.3 0 1.6.6 3.1 1.8 4.4l14.6 14.6h-60.8c-3.5 0-6.3 2.8-6.3 6.3z"/></svg>