<svg fill="#1f93ff" xmlns="http://www.w3.org/2000/svg" viewBox="0 0 220 63.4"><path d="M217.9 27.1 192.7 1.9C191.5.7 190 .1 188.3.1c-3.8 0-6.3 3.2-6.3 6.3 0 1.6.6 3.1 1.8 4.4l14.6 14.6h-57.5C137.9 11 125.2.2 110 .2S82.1 11 79.1 25.4H21.5l14.7-14.7C37.4 9.5 38 8 38 6.3 38 3.2 35.4 0 31.7 0c-1.7 0-3.1.6-4.4 1.8L2.1 27.1c-1 1-2.1 2.3-2.1 4.6s.9 3.4 2 4.6l25.3 25.3c1.2 1.2 2.7 1.8 4.4 1.8 3.8 0 6.3-3.2 6.3-6.3 0-1.6-.6-3.1-1.8-4.4L21.6 38.1h57.6c3 14.3 15.6 25.1 30.8 25.1 15.2 0 27.9-10.8 30.9-25.2h57.5l-14.6 14.7c-1.2 1.2-1.8 2.7-1.8 4.4 0 3.1 2.6 6.3 6.3 6.3 1.7 0 3.1-.6 4.4-1.8L218 36.3c1.2-1.2 2-2.3 2-4.6s-1.1-3.6-2.1-4.6zM110 50.8c-10.6 0-19.1-8.6-19.1-19.1s8.6-19.1 19.1-19.1 19.1 8.6 19.1 19.1-8.5 19.1-19.1 19.1z"/></svg>