<svg fill="#1f93ff" xmlns="http://www.w3.org/2000/svg" viewBox="0 0 300 63.4"><circle cx="150" cy="31.7" r="31.5"/><path d="M82.4 25.4H21.5l14.7-14.7C37.4 9.5 38 8 38 6.3 38 3.2 35.4 0 31.7 0c-1.7 0-3.1.6-4.4 1.8L2.1 27.1c-1 1-2.1 2.3-2.1 4.6s.9 3.4 2 4.6l25.3 25.3c1.2 1.2 2.7 1.8 4.4 1.8 3.8 0 6.3-3.2 6.3-6.3 0-1.6-.6-3.1-1.8-4.4L21.6 38.1h60.8c3.5 0 6.3-2.8 6.3-6.3s-2.8-6.4-6.3-6.4zm128.9 6.3c0 3.5 2.8 6.3 6.3 6.3h60.8l-14.6 14.7c-1.2 1.2-1.8 2.7-1.8 4.4 0 3.1 2.6 6.3 6.3 6.3 1.7 0 3.1-.6 4.4-1.8L298 36.3c1.2-1.2 2-2.3 2-4.6s-1.1-3.6-2.1-4.6L272.7 1.9C271.5.7 270 .1 268.3.1c-3.8 0-6.3 3.2-6.3 6.3 0 1.6.6 3.1 1.8 4.4l14.6 14.6h-60.8c-3.5 0-6.3 2.8-6.3 6.3z"/></svg>