<svg style="enable-background:new 0 0 64 64" viewBox="0 0 64 64" xml:space="preserve" xmlns="http://www.w3.org/2000/svg"><style>.st0{fill:none;stroke:#353535;stroke-width:2;stroke-miterlimit:10}</style><path class="st0" d="M3 30.9C3.6 16.1 15.2 4.1 29.9 3.1m.3 57.8C15.5 60 3.8 48.2 3 33.5m58 .1C60.1 48.3 48.4 60.1 33.7 61m-.1-58c14.6.8 26.3 12.2 27.4 26.8"/><path class="st0" d="M18.8 15.8c2.6-7 6.8-11.8 11.6-12.7M16.2 29.2c.1-2.7.5-5.3 1-7.9m.1 21.7c-.6-2.6-1-5.3-1.1-8m14.2 25.9c-4.7-.9-8.8-5.5-11.4-12.2m26.1-.2c-2.6 6.8-6.7 11.5-11.4 12.4M47.8 35c-.1 2.6-.5 5.1-1 7.6m0-21.2c.6 2.6.9 5.3 1 8M33.6 3.1c4.8.9 8.9 5.6 11.5 12.4M32 55v4.4M32 40v6.2m0-28.5V24m0-18.9v4.1m16.2 9.6c7 2.6 11.8 6.8 12.7 11.6M34.8 16.2c2.7.1 5.3.5 7.9 1m-21.7.1c2.6-.6 5.3-1 8-1.1M3.2 30.4C4 25.7 8.6 21.6 15.3 19m.2 26.1C8.7 42.5 4.1 38.4 3.2 33.7M29 47.8c-2.6-.1-5.1-.5-7.6-1m21.2 0c-2.6.6-5.3.9-8 1m26.3-14.2c-.9 4.8-5.6 8.9-12.4 11.5M10 32H4.4M24 32h-5.6m26.4 0H40m19.2 0H54"/><circle class="st0" cx="32" cy="15" r="3"/><circle class="st0" cx="32" cy="49" r="3"/><circle class="st0" cx="32" cy="3" r="2"/><circle class="st0" cx="46" cy="18.5" r="3"/><circle class="st0" cx="46" cy="46" r="3"/><circle class="st0" cx="18.2" cy="18.4" r="3"/><circle class="st0" cx="18.2" cy="45.9" r="3"/><circle class="st0" cx="32" cy="61" r="2"/><circle class="st0" cx="61" cy="32" r="2"/><circle class="st0" cx="3" cy="32" r="2"/><circle class="st0" cx="32" cy="32" r="5"/><circle class="st0" cx="47.9" cy="32" r="3"/><circle class="st0" cx="16.1" cy="32" r="3"/></svg>