<svg xmlns="http://www.w3.org/2000/svg" xmlns:xlink="http://www.w3.org/1999/xlink" x="0px" y="0px"
	 viewBox="0 0 300 210" style="enable-background:new 0 0 300 210;" xml:space="preserve">
<path fill="#E52521" d="M293.8,32.9c-3.5-12.9-13.6-23-26.4-26.4C243.9,0,150,0,150,0S56.1,0,32.6,6.2
	C20,9.6,9.6,20,6.2,32.9C0,56.3,0,105,0,105s0,48.9,6.2,72.2c3.5,12.9,13.6,23,26.4,26.4C56.3,210,150,210,150,210
	s93.9,0,117.4-6.2c12.9-3.5,23-13.6,26.4-26.4c6.2-23.5,6.2-72.2,6.2-72.2S300.2,56.3,293.8,32.9L293.8,32.9z"/>
<path fill="#FFFFFF" d="M120.1,60v90l78.1-45L120.1,60z"/>
</svg>
